<?xml version="1.0" standalone="no"?>
 <!DOCTYPE svg PUBLIC "-//W3C//DTD SVG 1.1//EN" 
 "http://www.w3.org/Graphics/SVG/1.1/DTD/svg11.dtd"> 
<svg xmlns="http://www.w3.org/2000/svg" version="1.1" 
    width="29.7002cm" height="21.0007cm" viewBox="0 0 116930 82680 ">
<title>SVG Picture created as Placa_central_v01-F_Cu.svg date 2019/09/05 17:33:25 </title>
  <desc>Picture generated by PCBNEW </desc>
<g style="fill:#000000; fill-opacity:1;stroke:#000000; stroke-opacity:1;
stroke-linecap:round; stroke-linejoin:round; "
 transform="translate(0 0) scale(1 1)">
</g>
<g style="fill:#000000; fill-opacity:0.0; 
stroke:#000000; stroke-width:-0.000393701; stroke-opacity:1; 
stroke-linecap:round; stroke-linejoin:round;">
</g>
<g style="fill:#000000; fill-opacity:1.0; 
stroke:#000000; stroke-width:39.3701; stroke-opacity:1; 
stroke-linecap:round; stroke-linejoin:round;">
<rect x="7699.87" y="24557.4" width="63829.3" height="45057.8" rx="0" />
</g>
<g style="fill:#FFFFFF; fill-opacity:1.0; 
stroke:#FFFFFF; stroke-width:39.3701; stroke-opacity:1; 
stroke-linecap:round; stroke-linejoin:round;">
</g>
<g style="fill:#FFFFFF; fill-opacity:0.0; 
stroke:#FFFFFF; stroke-width:39.3701; stroke-opacity:1; 
stroke-linecap:round; stroke-linejoin:round;">
</g>
<g style="fill:#FFFFFF; fill-opacity:0.0; 
stroke:#FFFFFF; stroke-width:147.638; stroke-opacity:1; 
stroke-linecap:round; stroke-linejoin:round;">
<path d="M67365 64243
L67393 64159
L67393 64018
L67365 63962
L67336 63934
L67280 63906
L67224 63906
L67168 63934
L67140 63962
L67111 64018
L67083 64131
L67055 64187
L67027 64215
L66971 64243
L66915 64243
L66858 64215
L66830 64187
L66802 64131
L66802 63990
L66830 63906
" />
<path d="M67336 63652
L67365 63624
L67393 63652
L67365 63681
L67336 63652
L67393 63652
" />
<path d="M67393 63090
L67393 63371
L66802 63371
" />
<path d="M67336 62893
L67365 62865
L67393 62893
L67365 62921
L67336 62893
L67393 62893
" />
<path d="M67168 62162
L67168 61712
" />
<path d="M67083 60981
L67083 60784
" />
<path d="M67393 60700
L67393 60981
L66802 60981
L66802 60700
" />
<path d="M67393 60109
L67111 60306
" />
<path d="M67393 60447
L66802 60447
L66802 60222
L66830 60165
L66858 60137
L66915 60109
L66999 60109
L67055 60137
L67083 60165
L67111 60222
L67111 60447
" />
<path d="M66802 59856
L67280 59856
L67336 59828
L67365 59800
L67393 59744
L67393 59631
L67365 59575
L67336 59547
L67280 59519
L66802 59519
" />
<path d="M67365 59266
L67393 59181
L67393 59041
L67365 58984
L67336 58956
L67280 58928
L67224 58928
L67168 58956
L67140 58984
L67111 59041
L67083 59153
L67055 59209
L67027 59237
L66971 59266
L66915 59266
L66858 59237
L66830 59209
L66802 59153
L66802 59012
L66830 58928
" />
<path d="M67168 58225
L67168 57775
" />
<path d="M67393 57044
L66802 57044
L66802 56819
L66830 56763
L66858 56735
L66915 56706
L66999 56706
L67055 56735
L67083 56763
L67111 56819
L67111 57044
" />
<path d="M67393 56369
L67365 56425
L67308 56453
L66802 56453
" />
<path d="M67336 56144
L67365 56116
L67393 56144
L67365 56172
L67336 56144
L67393 56144
" />
<path d="M67336 55075
L67365 55104
L67393 55188
L67393 55244
L67365 55329
L67308 55385
L67252 55413
L67140 55441
L67055 55441
L66943 55413
L66886 55385
L66830 55329
L66802 55244
L66802 55188
L66830 55104
L66858 55075
" />
<path d="M67083 54822
L67083 54625
" />
<path d="M67393 54541
L67393 54822
L66802 54822
L66802 54541
" />
<path d="M67393 54288
L66802 54288
L67393 53951
L66802 53951
" />
<path d="M66802 53754
L66802 53416
" />
<path d="M67393 53585
L66802 53585
" />
<path d="M67393 52882
L67111 53079
" />
<path d="M67393 53219
L66802 53219
L66802 52994
L66830 52938
L66858 52910
L66915 52882
L66999 52882
L67055 52910
L67083 52938
L67111 52994
L67111 53219
" />
<path d="M67224 52657
L67224 52376
" />
<path d="M67393 52713
L66802 52516
L67393 52320
" />
<path d="M67393 51841
L67393 52123
L66802 52123
" />
<g >
</g>
<g style="fill:#FFFFFF; fill-opacity:1.0; 
stroke:#FFFFFF; stroke-width:0; stroke-opacity:1; 
stroke-linecap:round; stroke-linejoin:round;">
<circle cx="19500" cy="65300" r="590.551" /> 
</g>
<g style="fill:#FFFFFF; fill-opacity:1.0; 
stroke:#FFFFFF; stroke-width:39.3701; stroke-opacity:1; 
stroke-linecap:round; stroke-linejoin:round;">
</g>
<g style="fill:#FFFFFF; fill-opacity:1.0; 
stroke:#FFFFFF; stroke-width:0; stroke-opacity:1; 
stroke-linecap:round; stroke-linejoin:round;">
<circle cx="19500" cy="50300" r="590.551" /> 
</g>
<g style="fill:#FFFFFF; fill-opacity:1.0; 
stroke:#FFFFFF; stroke-width:39.3701; stroke-opacity:1; 
stroke-linecap:round; stroke-linejoin:round;">
</g>
<g style="fill:#FFFFFF; fill-opacity:1.0; 
stroke:#FFFFFF; stroke-width:0; stroke-opacity:1; 
stroke-linecap:round; stroke-linejoin:round;">
<circle cx="34250" cy="50300" r="590.551" /> 
</g>
<g style="fill:#FFFFFF; fill-opacity:1.0; 
stroke:#FFFFFF; stroke-width:39.3701; stroke-opacity:1; 
stroke-linecap:round; stroke-linejoin:round;">
</g>
<g style="fill:#FFFFFF; fill-opacity:1.0; 
stroke:#FFFFFF; stroke-width:0; stroke-opacity:1; 
stroke-linecap:round; stroke-linejoin:round;">
<circle cx="34250" cy="65300" r="590.551" /> 
</g>
<g style="fill:#FFFFFF; fill-opacity:1.0; 
stroke:#FFFFFF; stroke-width:39.3701; stroke-opacity:1; 
stroke-linecap:round; stroke-linejoin:round;">
</g>
<g >
</g>
<g style="fill:#FFFFFF; fill-opacity:1.0; 
stroke:#FFFFFF; stroke-width:0; stroke-opacity:1; 
stroke-linecap:round; stroke-linejoin:round;">
<path style="fill:#FFFFFF; fill-opacity:1.0; 
stroke:#FFFFFF; stroke-width:0; stroke-opacity:1; 
stroke-linecap:round; stroke-linejoin:round;fill-rule:evenodd;"
d="M 45888,61490
45259,61490
45259,60309
45888,60309
45888,61490
Z" /> 
</g>
<g style="fill:#FFFFFF; fill-opacity:1.0; 
stroke:#FFFFFF; stroke-width:629.921; stroke-opacity:1; 
stroke-linecap:round; stroke-linejoin:round;">
</g>
<g style="fill:#FFFFFF; fill-opacity:0.0; 
stroke:#FFFFFF; stroke-width:629.921; stroke-opacity:1; 
stroke-linecap:round; stroke-linejoin:round;">
<path d="M58574 55175
L58574 54624
" />
<path d="M46574 61175
L46574 60624
" />
<path d="M57574 55175
L57574 54624
" />
<path d="M47574 61175
L47574 60624
" />
<path d="M56574 55175
L56574 54624
" />
<path d="M48574 61175
L48574 60624
" />
<path d="M55574 55175
L55574 54624
" />
<path d="M49574 61175
L49574 60624
" />
<path d="M54574 55175
L54574 54624
" />
<path d="M50574 61175
L50574 60624
" />
<path d="M53574 55175
L53574 54624
" />
<path d="M51574 61175
L51574 60624
" />
<path d="M52574 55175
L52574 54624
" />
<path d="M52574 61175
L52574 60624
" />
<path d="M51574 55175
L51574 54624
" />
<path d="M53574 61175
L53574 60624
" />
<path d="M50574 55175
L50574 54624
" />
<path d="M54574 61175
L54574 60624
" />
<path d="M49574 55175
L49574 54624
" />
<path d="M55574 61175
L55574 60624
" />
<path d="M48574 55175
L48574 54624
" />
<path d="M56574 61175
L56574 60624
" />
<path d="M47574 55175
L47574 54624
" />
<path d="M57574 61175
L57574 60624
" />
<path d="M46574 55175
L46574 54624
" />
<path d="M58574 61175
L58574 60624
" />
<path d="M45574 55175
L45574 54624
" />
<path d="M59574 61175
L59574 60624
" />
<path d="M59574 55175
L59574 54624
" />
</g>
<g >
</g>
<g style="fill:#FFFFFF; fill-opacity:0.0; 
stroke:#FFFFFF; stroke-width:0; stroke-opacity:1; 
stroke-linecap:round; stroke-linejoin:round;">
</g>
<g style="fill:#FFFFFF; fill-opacity:1.0; 
stroke:#FFFFFF; stroke-width:0; stroke-opacity:1; 
stroke-linecap:round; stroke-linejoin:round;">
<path style="fill:#FFFFFF; fill-opacity:1.0; 
stroke:#FFFFFF; stroke-width:0; stroke-opacity:1; 
stroke-linecap:round; stroke-linejoin:round;fill-rule:evenodd;"
d="M 60787,64724
60787,65433
60078,65433
60078,64724
60787,64724
Z" /> 
<circle cx="59433.1" cy="65078.7" r="354.331" /> 
</g>
<g style="fill:#FFFFFF; fill-opacity:1.0; 
stroke:#FFFFFF; stroke-width:39.3701; stroke-opacity:1; 
stroke-linecap:round; stroke-linejoin:round;">
</g>
<g >
</g>
<g style="fill:#FFFFFF; fill-opacity:1.0; 
stroke:#FFFFFF; stroke-width:0; stroke-opacity:1; 
stroke-linecap:round; stroke-linejoin:round;">
<circle cx="40216.5" cy="55763.8" r="354.331" /> 
</g>
<g style="fill:#FFFFFF; fill-opacity:1.0; 
stroke:#FFFFFF; stroke-width:39.3701; stroke-opacity:1; 
stroke-linecap:round; stroke-linejoin:round;">
</g>
<g style="fill:#FFFFFF; fill-opacity:1.0; 
stroke:#FFFFFF; stroke-width:0; stroke-opacity:1; 
stroke-linecap:round; stroke-linejoin:round;">
<path style="fill:#FFFFFF; fill-opacity:1.0; 
stroke:#FFFFFF; stroke-width:0; stroke-opacity:1; 
stroke-linecap:round; stroke-linejoin:round;fill-rule:evenodd;"
d="M 39862,54409
40570,54409
40570,55118
39862,55118
39862,54409
Z" /> 
</g>
<g >
<path style="fill:#FFFFFF; fill-opacity:1.0; 
stroke:#FFFFFF; stroke-width:0; stroke-opacity:1; 
stroke-linecap:round; stroke-linejoin:round;fill-rule:evenodd;"
d="M 45708,62934
45039,62934
45039,62265
45708,62265
45708,62934
Z" /> 
</g>
<g style="fill:#FFFFFF; fill-opacity:1.0; 
stroke:#FFFFFF; stroke-width:669.291; stroke-opacity:1; 
stroke-linecap:round; stroke-linejoin:round;">
</g>
<g style="fill:#FFFFFF; fill-opacity:0.0; 
stroke:#FFFFFF; stroke-width:669.291; stroke-opacity:1; 
stroke-linecap:round; stroke-linejoin:round;">
<path d="M46374 62600
L46374 62600
" />
</g>
<g >
</g>
<g style="fill:#FFFFFF; fill-opacity:0.0; 
stroke:#FFFFFF; stroke-width:0; stroke-opacity:1; 
stroke-linecap:round; stroke-linejoin:round;">
</g>
<g style="fill:#FFFFFF; fill-opacity:1.0; 
stroke:#FFFFFF; stroke-width:0; stroke-opacity:1; 
stroke-linecap:round; stroke-linejoin:round;">
<path style="fill:#FFFFFF; fill-opacity:1.0; 
stroke:#FFFFFF; stroke-width:0; stroke-opacity:1; 
stroke-linecap:round; stroke-linejoin:round;fill-rule:evenodd;"
d="M 47639,63534
47639,62865
48308,62865
48308,63534
47639,63534
Z" /> 
</g>
<g >
</g>
<g style="fill:#FFFFFF; fill-opacity:1.0; 
stroke:#FFFFFF; stroke-width:787.402; stroke-opacity:1; 
stroke-linecap:round; stroke-linejoin:round;">
</g>
<g style="fill:#FFFFFF; fill-opacity:0.0; 
stroke:#FFFFFF; stroke-width:787.402; stroke-opacity:1; 
stroke-linecap:round; stroke-linejoin:round;">
<path d="M50574 52195
L50574 51998
" />
<path d="M50574 50801
L50574 50604
" />
<path d="M51574 52195
L51574 51998
" />
<path d="M51574 50801
L51574 50604
" />
<path d="M52574 52195
L52574 51998
" />
<path d="M52574 50801
L52574 50604
" />
<path d="M53574 52195
L53574 51998
" />
<path d="M53574 50801
L53574 50604
" />
<path d="M54574 52195
L54574 51998
" />
<path d="M54574 50801
L54574 50604
" />
<path d="M55574 52195
L55574 51998
" />
<path d="M55574 50801
L55574 50604
" />
<path d="M56574 52195
L56574 51998
" />
<path d="M56574 50801
L56574 50604
" />
<path d="M57574 52195
L57574 51998
" />
<path d="M57574 50801
L57574 50604
" />
</g>
<g >
</g>
<g style="fill:#FFFFFF; fill-opacity:1.0; 
stroke:#FFFFFF; stroke-width:0; stroke-opacity:1; 
stroke-linecap:round; stroke-linejoin:round;">
<circle cx="38070.9" cy="61240.2" r="689" /> 
</g>
<g style="fill:#FFFFFF; fill-opacity:1.0; 
stroke:#FFFFFF; stroke-width:39.3701; stroke-opacity:1; 
stroke-linecap:round; stroke-linejoin:round;">
</g>
<g >
</g>
<g style="fill:#FFFFFF; fill-opacity:1.0; 
stroke:#FFFFFF; stroke-width:0; stroke-opacity:1; 
stroke-linecap:round; stroke-linejoin:round;">
<circle cx="38149.6" cy="63484.3" r="689" /> 
</g>
<g style="fill:#FFFFFF; fill-opacity:1.0; 
stroke:#FFFFFF; stroke-width:39.3701; stroke-opacity:1; 
stroke-linecap:round; stroke-linejoin:round;">
</g>
<g >
</g>
<g style="fill:#FFFFFF; fill-opacity:1.0; 
stroke:#FFFFFF; stroke-width:787.402; stroke-opacity:1; 
stroke-linecap:round; stroke-linejoin:round;">
</g>
<g style="fill:#FFFFFF; fill-opacity:0.0; 
stroke:#FFFFFF; stroke-width:787.402; stroke-opacity:1; 
stroke-linecap:round; stroke-linejoin:round;">
<path d="M37795 58818
L37992 58818
" />
</g>
<g >
<path d="M37795 56102
L37992 56102
" />
</g>
<g >
<path d="M37791 57443
L37988 57443
" />
</g>
<g >
<path d="M37755 54173
L37952 54173
" />
</g>
<g >
<path d="M37795 52854
L37992 52854
" />
</g>
<g >
<path d="M37795 51574
L37992 51574
" />
</g>
<g >
</g>
<g style="fill:#FFFFFF; fill-opacity:1.0; 
stroke:#FFFFFF; stroke-width:0; stroke-opacity:1; 
stroke-linecap:round; stroke-linejoin:round;">
<circle cx="56830.7" cy="65118.1" r="393.5" /> 
</g>
<g style="fill:#FFFFFF; fill-opacity:1.0; 
stroke:#FFFFFF; stroke-width:39.3701; stroke-opacity:1; 
stroke-linecap:round; stroke-linejoin:round;">
</g>
<g >
</g>
<g style="fill:#FFFFFF; fill-opacity:1.0; 
stroke:#FFFFFF; stroke-width:629.921; stroke-opacity:1; 
stroke-linecap:round; stroke-linejoin:round;">
</g>
<g style="fill:#FFFFFF; fill-opacity:0.0; 
stroke:#FFFFFF; stroke-width:629.921; stroke-opacity:1; 
stroke-linecap:round; stroke-linejoin:round;">
<path d="M62464 62401
L62464 62401
" />
</g>
<g style="fill:#FFFFFF; fill-opacity:1.0; 
stroke:#FFFFFF; stroke-width:0; stroke-opacity:1; 
stroke-linecap:round; stroke-linejoin:round;">
<circle cx="58464.6" cy="62401.6" r="314.961" /> 
</g>
<g style="fill:#FFFFFF; fill-opacity:1.0; 
stroke:#FFFFFF; stroke-width:39.3701; stroke-opacity:1; 
stroke-linecap:round; stroke-linejoin:round;">
</g>
<g >
</g>
<g style="fill:#FFFFFF; fill-opacity:1.0; 
stroke:#FFFFFF; stroke-width:0; stroke-opacity:1; 
stroke-linecap:round; stroke-linejoin:round;">
<circle cx="43661.4" cy="52677.2" r="314.961" /> 
</g>
<g style="fill:#FFFFFF; fill-opacity:1.0; 
stroke:#FFFFFF; stroke-width:39.3701; stroke-opacity:1; 
stroke-linecap:round; stroke-linejoin:round;">
</g>
<g style="fill:#FFFFFF; fill-opacity:1.0; 
stroke:#FFFFFF; stroke-width:629.921; stroke-opacity:1; 
stroke-linecap:round; stroke-linejoin:round;">
</g>
<g style="fill:#FFFFFF; fill-opacity:0.0; 
stroke:#FFFFFF; stroke-width:629.921; stroke-opacity:1; 
stroke-linecap:round; stroke-linejoin:round;">
<path d="M46489 49848
L46489 49848
" />
</g>
<g >
<path d="M41255 65846
L41255 65846
" />
</g>
<g style="fill:#FFFFFF; fill-opacity:1.0; 
stroke:#FFFFFF; stroke-width:0; stroke-opacity:1; 
stroke-linecap:round; stroke-linejoin:round;">
<circle cx="45255.9" cy="65846.5" r="314.961" /> 
</g>
<g style="fill:#FFFFFF; fill-opacity:1.0; 
stroke:#FFFFFF; stroke-width:39.3701; stroke-opacity:1; 
stroke-linecap:round; stroke-linejoin:round;">
</g>
<g >
</g>
<g style="fill:#FFFFFF; fill-opacity:1.0; 
stroke:#FFFFFF; stroke-width:787.402; stroke-opacity:1; 
stroke-linecap:round; stroke-linejoin:round;">
</g>
<g style="fill:#FFFFFF; fill-opacity:0.0; 
stroke:#FFFFFF; stroke-width:787.402; stroke-opacity:1; 
stroke-linecap:round; stroke-linejoin:round;">
<path d="M42440 64685
L42440 64488
" />
<path d="M40669 64685
L40669 64488
" />
<path d="M42440 62125
L42440 61929
" />
<path d="M40669 62125
L40669 61929
" />
</g>
<g >
</g>
<g style="fill:#FFFFFF; fill-opacity:1.0; 
stroke:#FFFFFF; stroke-width:0; stroke-opacity:1; 
stroke-linecap:round; stroke-linejoin:round;">
<circle cx="38267.7" cy="65944.9" r="689" /> 
</g>
<g style="fill:#FFFFFF; fill-opacity:1.0; 
stroke:#FFFFFF; stroke-width:39.3701; stroke-opacity:1; 
stroke-linecap:round; stroke-linejoin:round;">
</g>
<g >
</g>
<g style="fill:#FFFFFF; fill-opacity:1.0; 
stroke:#FFFFFF; stroke-width:0; stroke-opacity:1; 
stroke-linecap:round; stroke-linejoin:round;">
<circle cx="40826.8" cy="50118.1" r="689" /> 
</g>
<g style="fill:#FFFFFF; fill-opacity:1.0; 
stroke:#FFFFFF; stroke-width:39.3701; stroke-opacity:1; 
stroke-linecap:round; stroke-linejoin:round;">
</g>
<g >
</g>
<g style="fill:#FFFFFF; fill-opacity:1.0; 
stroke:#FFFFFF; stroke-width:0; stroke-opacity:1; 
stroke-linecap:round; stroke-linejoin:round;">
<circle cx="43543.3" cy="50118.1" r="689" /> 
</g>
<g style="fill:#FFFFFF; fill-opacity:1.0; 
stroke:#FFFFFF; stroke-width:39.3701; stroke-opacity:1; 
stroke-linecap:round; stroke-linejoin:round;">
</g>
<g >
</g>
<g style="fill:#FFFFFF; fill-opacity:1.0; 
stroke:#FFFFFF; stroke-width:0; stroke-opacity:1; 
stroke-linecap:round; stroke-linejoin:round;">
<circle cx="34065.8" cy="29288.7" r="590.551" /> 
</g>
<g style="fill:#FFFFFF; fill-opacity:1.0; 
stroke:#FFFFFF; stroke-width:39.3701; stroke-opacity:1; 
stroke-linecap:round; stroke-linejoin:round;">
</g>
<g style="fill:#FFFFFF; fill-opacity:1.0; 
stroke:#FFFFFF; stroke-width:0; stroke-opacity:1; 
stroke-linecap:round; stroke-linejoin:round;">
<circle cx="25168.2" cy="29288.7" r="590.551" /> 
</g>
<g style="fill:#FFFFFF; fill-opacity:1.0; 
stroke:#FFFFFF; stroke-width:39.3701; stroke-opacity:1; 
stroke-linecap:round; stroke-linejoin:round;">
</g>
<g >
</g>
<g style="fill:#FFFFFF; fill-opacity:1.0; 
stroke:#FFFFFF; stroke-width:0; stroke-opacity:1; 
stroke-linecap:round; stroke-linejoin:round;">
<circle cx="25168.2" cy="33599.7" r="590.551" /> 
</g>
<g style="fill:#FFFFFF; fill-opacity:1.0; 
stroke:#FFFFFF; stroke-width:39.3701; stroke-opacity:1; 
stroke-linecap:round; stroke-linejoin:round;">
</g>
<g style="fill:#FFFFFF; fill-opacity:1.0; 
stroke:#FFFFFF; stroke-width:0; stroke-opacity:1; 
stroke-linecap:round; stroke-linejoin:round;">
<circle cx="34065.8" cy="33599.7" r="590.551" /> 
</g>
<g style="fill:#FFFFFF; fill-opacity:1.0; 
stroke:#FFFFFF; stroke-width:39.3701; stroke-opacity:1; 
stroke-linecap:round; stroke-linejoin:round;">
</g>
<g >
</g>
<g style="fill:#FFFFFF; fill-opacity:1.0; 
stroke:#FFFFFF; stroke-width:0; stroke-opacity:1; 
stroke-linecap:round; stroke-linejoin:round;">
<circle cx="36191.8" cy="28324.1" r="787.5" /> 
</g>
<g style="fill:#FFFFFF; fill-opacity:1.0; 
stroke:#FFFFFF; stroke-width:39.3701; stroke-opacity:1; 
stroke-linecap:round; stroke-linejoin:round;">
</g>
<g >
</g>
<g style="fill:#FFFFFF; fill-opacity:1.0; 
stroke:#FFFFFF; stroke-width:0; stroke-opacity:1; 
stroke-linecap:round; stroke-linejoin:round;">
<circle cx="36191.8" cy="30706" r="787.5" /> 
</g>
<g style="fill:#FFFFFF; fill-opacity:1.0; 
stroke:#FFFFFF; stroke-width:39.3701; stroke-opacity:1; 
stroke-linecap:round; stroke-linejoin:round;">
</g>
<g >
</g>
<g style="fill:#FFFFFF; fill-opacity:1.0; 
stroke:#FFFFFF; stroke-width:0; stroke-opacity:1; 
stroke-linecap:round; stroke-linejoin:round;">
<circle cx="38573.7" cy="28324.1" r="787.5" /> 
</g>
<g style="fill:#FFFFFF; fill-opacity:1.0; 
stroke:#FFFFFF; stroke-width:39.3701; stroke-opacity:1; 
stroke-linecap:round; stroke-linejoin:round;">
</g>
<g >
</g>
<g style="fill:#FFFFFF; fill-opacity:1.0; 
stroke:#FFFFFF; stroke-width:0; stroke-opacity:1; 
stroke-linecap:round; stroke-linejoin:round;">
<circle cx="36191.8" cy="33087.9" r="787.5" /> 
</g>
<g style="fill:#FFFFFF; fill-opacity:1.0; 
stroke:#FFFFFF; stroke-width:39.3701; stroke-opacity:1; 
stroke-linecap:round; stroke-linejoin:round;">
</g>
<g >
</g>
<g style="fill:#FFFFFF; fill-opacity:1.0; 
stroke:#FFFFFF; stroke-width:0; stroke-opacity:1; 
stroke-linecap:round; stroke-linejoin:round;">
<circle cx="62795.3" cy="50334.6" r="688.976" /> 
</g>
<g style="fill:#FFFFFF; fill-opacity:1.0; 
stroke:#FFFFFF; stroke-width:39.3701; stroke-opacity:1; 
stroke-linecap:round; stroke-linejoin:round;">
</g>
<g >
</g>
<g style="fill:#FFFFFF; fill-opacity:1.0; 
stroke:#FFFFFF; stroke-width:0; stroke-opacity:1; 
stroke-linecap:round; stroke-linejoin:round;">
<circle cx="62815" cy="65295.3" r="688.976" /> 
</g>
<g style="fill:#FFFFFF; fill-opacity:1.0; 
stroke:#FFFFFF; stroke-width:39.3701; stroke-opacity:1; 
stroke-linecap:round; stroke-linejoin:round;">
</g>
<g >
</g>
<g style="fill:#FFFFFF; fill-opacity:1.0; 
stroke:#FFFFFF; stroke-width:0; stroke-opacity:1; 
stroke-linecap:round; stroke-linejoin:round;">
<path style="fill:#FFFFFF; fill-opacity:1.0; 
stroke:#FFFFFF; stroke-width:0; stroke-opacity:1; 
stroke-linecap:round; stroke-linejoin:round;fill-rule:evenodd;"
d="M 16092,58909
16101,58911
16111,58913
16120,58916
16129,58921
16137,58926
16145,58931
16152,58938
16158,58945
16164,58953
16169,58961
16173,58970
16176,58979
16179,58988
16180,58998
16181,59007
16181,59496
16180,59505
16179,59515
16176,59524
16173,59533
16169,59542
16164,59550
16158,59558
16152,59565
16145,59572
16137,59577
16129,59582
16120,59586
16111,59590
16101,59592
16092,59594
16082,59594
15413,59594
15403,59594
15394,59592
15384,59590
15375,59586
15366,59582
15358,59577
15350,59572
15343,59565
15337,59558
15331,59550
15326,59542
15322,59533
15319,59524
15316,59515
15315,59505
15314,59496
15314,59007
15315,58998
15316,58988
15319,58979
15322,58970
15326,58961
15331,58953
15337,58945
15343,58938
15350,58931
15358,58926
15366,58921
15375,58916
15384,58913
15394,58911
15403,58909
15413,58909
16082,58909
16092,58909
Z" /> 
</g>
<g style="fill:#FFFFFF; fill-opacity:1.0; 
stroke:#FFFFFF; stroke-width:685.039; stroke-opacity:1; 
stroke-linecap:round; stroke-linejoin:round;">
</g>
<g style="fill:#FFFFFF; fill-opacity:0.0; 
stroke:#FFFFFF; stroke-width:685.039; stroke-opacity:1; 
stroke-linecap:round; stroke-linejoin:round;">
<path d="M15657 58251
L15838 58251
" />
<path d="M15657 57251
L15838 57251
" />
</g>
<g >
<path d="M64657 54952
L64476 54952
" />
<path d="M64657 53952
L64476 53952
" />
</g>
<g style="fill:#FFFFFF; fill-opacity:0.0; 
stroke:#FFFFFF; stroke-width:0; stroke-opacity:1; 
stroke-linecap:round; stroke-linejoin:round;">
</g>
<g style="fill:#FFFFFF; fill-opacity:1.0; 
stroke:#FFFFFF; stroke-width:0; stroke-opacity:1; 
stroke-linecap:round; stroke-linejoin:round;">
<path style="fill:#FFFFFF; fill-opacity:1.0; 
stroke:#FFFFFF; stroke-width:0; stroke-opacity:1; 
stroke-linecap:round; stroke-linejoin:round;fill-rule:evenodd;"
d="M 64911,52610
64920,52612
64930,52614
64939,52617
64947,52621
64956,52626
64964,52632
64971,52639
64977,52646
64983,52653
64988,52662
64992,52670
64995,52680
64998,52689
64999,52699
65000,52708
65000,53196
64999,53206
64998,53216
64995,53225
64992,53234
64988,53243
64983,53251
64977,53259
64971,53266
64964,53272
64956,53278
64947,53283
64939,53287
64930,53291
64920,53293
64911,53294
64901,53295
64232,53295
64222,53294
64213,53293
64203,53291
64194,53287
64185,53283
64177,53278
64169,53272
64162,53266
64156,53259
64150,53251
64145,53243
64141,53234
64138,53225
64135,53216
64134,53206
64133,53196
64133,52708
64134,52699
64135,52689
64138,52680
64141,52670
64145,52662
64150,52653
64156,52646
64162,52639
64169,52632
64177,52626
64185,52621
64194,52617
64203,52614
64213,52612
64222,52610
64232,52610
64901,52610
64911,52610
Z" /> 
</g>
<g >
<circle cx="46515.7" cy="53090.6" r="354.331" /> 
</g>
<g style="fill:#FFFFFF; fill-opacity:1.0; 
stroke:#FFFFFF; stroke-width:39.3701; stroke-opacity:1; 
stroke-linecap:round; stroke-linejoin:round;">
</g>
<g style="fill:#FFFFFF; fill-opacity:1.0; 
stroke:#FFFFFF; stroke-width:0; stroke-opacity:1; 
stroke-linecap:round; stroke-linejoin:round;">
<circle cx="52854.3" cy="63484.3" r="354.331" /> 
</g>
<g style="fill:#FFFFFF; fill-opacity:1.0; 
stroke:#FFFFFF; stroke-width:39.3701; stroke-opacity:1; 
stroke-linecap:round; stroke-linejoin:round;">
</g>
<g style="fill:#FFFFFF; fill-opacity:1.0; 
stroke:#FFFFFF; stroke-width:0; stroke-opacity:1; 
stroke-linecap:round; stroke-linejoin:round;">
<circle cx="61023.6" cy="55118.1" r="354.331" /> 
</g>
<g style="fill:#FFFFFF; fill-opacity:1.0; 
stroke:#FFFFFF; stroke-width:39.3701; stroke-opacity:1; 
stroke-linecap:round; stroke-linejoin:round;">
</g>
<g style="fill:#FFFFFF; fill-opacity:1.0; 
stroke:#FFFFFF; stroke-width:0; stroke-opacity:1; 
stroke-linecap:round; stroke-linejoin:round;">
<circle cx="48574" cy="53000.8" r="354.331" /> 
</g>
<g style="fill:#FFFFFF; fill-opacity:1.0; 
stroke:#FFFFFF; stroke-width:39.3701; stroke-opacity:1; 
stroke-linecap:round; stroke-linejoin:round;">
</g>
<g style="fill:#FFFFFF; fill-opacity:1.0; 
stroke:#FFFFFF; stroke-width:0; stroke-opacity:1; 
stroke-linecap:round; stroke-linejoin:round;">
<circle cx="14724.4" cy="55944.9" r="354.331" /> 
</g>
<g style="fill:#FFFFFF; fill-opacity:1.0; 
stroke:#FFFFFF; stroke-width:39.3701; stroke-opacity:1; 
stroke-linecap:round; stroke-linejoin:round;">
</g>
<g style="fill:#FFFFFF; fill-opacity:1.0; 
stroke:#FFFFFF; stroke-width:0; stroke-opacity:1; 
stroke-linecap:round; stroke-linejoin:round;">
<circle cx="65551.2" cy="56496.1" r="354.331" /> 
</g>
<g style="fill:#FFFFFF; fill-opacity:1.0; 
stroke:#FFFFFF; stroke-width:39.3701; stroke-opacity:1; 
stroke-linecap:round; stroke-linejoin:round;">
</g>
<g style="fill:#FFFFFF; fill-opacity:1.0; 
stroke:#FFFFFF; stroke-width:0; stroke-opacity:1; 
stroke-linecap:round; stroke-linejoin:round;">
<circle cx="63779.5" cy="56496.1" r="354.331" /> 
</g>
<g style="fill:#FFFFFF; fill-opacity:1.0; 
stroke:#FFFFFF; stroke-width:39.3701; stroke-opacity:1; 
stroke-linecap:round; stroke-linejoin:round;">
</g>
<g style="fill:#FFFFFF; fill-opacity:1.0; 
stroke:#FFFFFF; stroke-width:0; stroke-opacity:1; 
stroke-linecap:round; stroke-linejoin:round;">
<circle cx="44527.6" cy="53543.3" r="354.331" /> 
</g>
<g style="fill:#FFFFFF; fill-opacity:1.0; 
stroke:#FFFFFF; stroke-width:39.3701; stroke-opacity:1; 
stroke-linecap:round; stroke-linejoin:round;">
</g>
<g style="fill:#FFFFFF; fill-opacity:1.0; 
stroke:#FFFFFF; stroke-width:0; stroke-opacity:1; 
stroke-linecap:round; stroke-linejoin:round;">
<circle cx="52755.9" cy="62401.6" r="354.331" /> 
</g>
<g style="fill:#FFFFFF; fill-opacity:1.0; 
stroke:#FFFFFF; stroke-width:39.3701; stroke-opacity:1; 
stroke-linecap:round; stroke-linejoin:round;">
</g>
<g >
</g>
<g style="fill:#FFFFFF; fill-opacity:1.0; 
stroke:#FFFFFF; stroke-width:236.22; stroke-opacity:1; 
stroke-linecap:round; stroke-linejoin:round;">
</g>
<g style="fill:#FFFFFF; fill-opacity:0.0; 
stroke:#FFFFFF; stroke-width:236.22; stroke-opacity:1; 
stroke-linecap:round; stroke-linejoin:round;">
<path d="M47500 61100
L47700 60900
" />
</g>
<g style="fill:#FFFFFF; fill-opacity:0.0; 
stroke:#FFFFFF; stroke-width:354.331; stroke-opacity:1; 
stroke-linecap:round; stroke-linejoin:round;">
<path d="M46515 53090
L43543 50118
" />
<path d="M38287 63346
L38149 63484
" />
<path d="M39311 63110
L39074 63346
" />
<path d="M41047 56594
L41047 58933
" />
<path d="M40216 55763
L41047 56594
" />
<path d="M41047 58933
L39370 60610
" />
<path d="M39370 60610
L39370 63070
" />
<path d="M39370 63070
L39330 63110
" />
<path d="M39074 63346
L38287 63346
" />
<path d="M39330 63110
L39311 63110
" />
</g>
<g style="fill:#FFFFFF; fill-opacity:0.0; 
stroke:#FFFFFF; stroke-width:236.22; stroke-opacity:1; 
stroke-linecap:round; stroke-linejoin:round;">
<path d="M61023 55905
L61023 55118
" />
<path d="M61023 57480
L61023 55905
" />
<path d="M61003 57500
L61023 57480
" />
<path d="M62464 58960
L62086 58582
" />
<path d="M62464 62401
L62464 58960
" />
<path d="M62086 58582
L61003 57500
" />
</g>
<g style="fill:#FFFFFF; fill-opacity:0.0; 
stroke:#FFFFFF; stroke-width:354.331; stroke-opacity:1; 
stroke-linecap:round; stroke-linejoin:round;">
<path d="M40669 62027
L40669 64586
" />
<path d="M46489 49848
L48574 51932
" />
<path d="M48574 51932
L48574 53000
" />
<path d="M48574 53000
L44588 49015
" />
<path d="M44588 49015
L38976 49015
" />
<path d="M37795 49015
L38976 49015
" />
<path d="M24261 53100
L33711 53100
" />
<path d="M33711 53100
L37795 49015
" />
<path d="M17322 53346
L14724 55944
" />
<path d="M17569 53100
L17322 53346
" />
<path d="M24261 53100
L17569 53100
" />
<path d="M34645 54034
L33711 53100
" />
<path d="M34645 63484
L34645 54034
" />
<path d="M35944 64783
L34645 63484
" />
<path d="M39915 64783
L35944 64783
" />
<path d="M40669 64586
L40112 64586
" />
<path d="M40112 64586
L39915 64783
" />
<path d="M65551 56997
L65551 56496
" />
<path d="M65551 61811
L65551 56997
" />
<path d="M63169 64192
L65551 61811
" />
<path d="M56830 65118
L57755 64192
" />
<path d="M57755 64192
L63169 64192
" />
</g>
<g style="fill:#FFFFFF; fill-opacity:0.0; 
stroke:#FFFFFF; stroke-width:236.22; stroke-opacity:1; 
stroke-linecap:round; stroke-linejoin:round;">
<path d="M52854 63484
L62696 63484
" />
<path d="M62696 63484
L63779 62401
" />
<path d="M63779 56997
L63779 56496
" />
<path d="M63779 62401
L63779 56997
" />
</g>
<g style="fill:#FFFFFF; fill-opacity:0.0; 
stroke:#FFFFFF; stroke-width:354.331; stroke-opacity:1; 
stroke-linecap:round; stroke-linejoin:round;">
<path d="M42499 66633
L38956 66633
" />
<path d="M43700 65433
L42499 66633
" />
<path d="M38956 66633
L38267 65944
" />
<path d="M43700 53868
L43700 57185
" />
<path d="M44026 53543
L43700 53868
" />
<path d="M44527 53543
L44026 53543
" />
<path d="M43700 57185
L43700 65433
" />
<path d="M40826 50118
L42244 51535
" />
<path d="M42244 51535
L43858 51535
" />
<path d="M44527 52204
L43858 51535
" />
<path d="M44527 53543
L44527 52204
" />
</g>
<g style="fill:#FFFFFF; fill-opacity:0.0; 
stroke:#FFFFFF; stroke-width:236.22; stroke-opacity:1; 
stroke-linecap:round; stroke-linejoin:round;">
<path d="M42440 62027
L42440 64586
" />
<path d="M45255 65846
L47753 65846
" />
<path d="M51198 62401
L48827 64772
" />
<path d="M52755 62401
L51198 62401
" />
<path d="M47753 65846
L48827 64772
" />
<path d="M41574 54763
L43661 52677
" />
<path d="M40216 54763
L41574 54763
" />
</g>
<g >
</g>
<g style="fill:#FFFFFF; fill-opacity:1.0; 
stroke:#FFFFFF; stroke-width:100; stroke-opacity:1; 
stroke-linecap:round; stroke-linejoin:round;">
<path style="fill:#FFFFFF; fill-opacity:1.0; 
stroke:#FFFFFF; stroke-width:100; stroke-opacity:1; 
stroke-linecap:round; stroke-linejoin:round;fill-rule:evenodd;"
d="M 68886,47894
68877,67479
13406,67459
13410,58251
15025,58251
15037,58375
15073,58493
15132,58602
15200,58686
15198,58686
15140,58734
15092,58793
15056,58860
15034,58932
15027,59007
15027,59496
15034,59571
15056,59643
15092,59710
15140,59769
15198,59817
15265,59852
15338,59874
15413,59882
16082,59882
16157,59874
16230,59852
16297,59817
16355,59769
16403,59710
16439,59643
16461,59571
16468,59496
16468,59007
16461,58932
16439,58860
16403,58793
16355,58734
16297,58686
16295,58686
16363,58602
16422,58493
16458,58375
16470,58251
16458,58128
16422,58010
16363,57900
16285,57805
16192,57728
16212,57715
16295,57634
16361,57537
16406,57430
16413,57393
16366,57301
15798,57301
15798,57309
15698,57309
15698,57301
15129,57301
15082,57393
15089,57430
15134,57537
15200,57634
15283,57715
15303,57728
15210,57805
15132,57900
15073,58010
15037,58128
15025,58251
13410,58251
13411,57110
15082,57110
15129,57201
15698,57201
15698,56720
15798,56720
15798,57201
16366,57201
16413,57110
16406,57073
16361,56966
16295,56869
16212,56788
16114,56724
16006,56680
15891,56658
15798,56720
15698,56720
15604,56658
15489,56680
15381,56724
15283,56788
15200,56869
15134,56966
15089,57073
15082,57110
13411,57110
13412,55881
14083,55881
14083,56007
14108,56131
14156,56248
14226,56353
14316,56442
14420,56512
14537,56560
14661,56585
14787,56585
14911,56560
15027,56512
15132,56442
15221,56353
15292,56248
15340,56131
15364,56007
15364,55959
17666,53658
17666,53658
17761,53563
18296,53563
18296,66377
18297,66387
18300,66397
18304,66405
18311,66413
18318,66419
18327,66424
18336,66426
18346,66427
35354,66427
35364,66426
35373,66424
35382,66419
35389,66413
35395,66405
35400,66397
35403,66387
35404,66377
35404,64898
35601,65095
35615,65112
35633,65127
35633,65127
35660,65149
35686,65170
35766,65213
35854,65240
35944,65249
35967,65246
37586,65246
37510,65323
37403,65482
37329,65660
37292,65848
37292,66040
37329,66229
37403,66406
37510,66566
37646,66702
37805,66809
37983,66882
38171,66920
38363,66920
38550,66882
38612,66945
38627,66963
38698,67021
38778,67064
38865,67090
38933,67097
38933,67097
38956,67099
38979,67097
42477,67097
42499,67099
42522,67097
42590,67090
42678,67064
42758,67021
42829,66963
42843,66945
44001,65787
44654,65787
44654,65905
44677,66021
44723,66131
44788,66229
44872,66313
44971,66379
45080,66424
45196,66447
45315,66447
45431,66424
45540,66379
45639,66313
45701,66250
47733,66250
47753,66252
47773,66250
47773,66250
47832,66244
47909,66221
47979,66184
48040,66133
48053,66118
48606,65564
56454,65564
56492,65669
56606,65724
56728,65756
56855,65764
56980,65747
57100,65705
57169,65669
57206,65564
56830,65188
56454,65564
48606,65564
49029,65142
56184,65142
56201,65268
56243,65388
56279,65456
56383,65494
56759,65118
56901,65118
57277,65494
57381,65456
57437,65342
57469,65219
57476,65104
58826,65104
58843,65222
58882,65335
58914,65394
59014,65426
59362,65078
59014,64730
58914,64763
58862,64870
58832,64986
58826,65104
57476,65104
57476,65093
57459,64967
57418,64848
57381,64779
57277,64741
56901,65118
56759,65118
56383,64741
56279,64779
56224,64893
56192,65016
56184,65142
49029,65142
49127,65044
49127,65044
49500,64671
56454,64671
56830,65047
57206,64671
57202,64659
59084,64659
59433,65008
59438,65002
59509,65073
59503,65078
59509,65084
59438,65155
59433,65149
59084,65497
59117,65597
59225,65649
59340,65678
59459,65685
59577,65668
59689,65629
59748,65597
59781,65497
59807,65523
59813,65543
59839,65592
59875,65636
59918,65672
59968,65698
60022,65715
60078,65720
60787,65720
60843,65715
60897,65698
60947,65672
60990,65636
61026,65592
61053,65543
61069,65489
61075,65433
61075,65199
61839,65199
61839,65391
61877,65579
61950,65757
62057,65916
62193,66052
62353,66159
62530,66232
62718,66270
62911,66270
63099,66232
63276,66159
63436,66052
63572,65916
63679,65757
63752,65579
63790,65391
63790,65199
63752,65010
63679,64833
63572,64673
63436,64537
63276,64431
63099,64357
62911,64320
62718,64320
62530,64357
62353,64431
62193,64537
62057,64673
61950,64833
61877,65010
61839,65199
61075,65199
61075,64724
61069,64668
61053,64614
61026,64564
60990,64521
60947,64485
60897,64458
60843,64442
60787,64436
60078,64436
60022,64442
59968,64458
59918,64485
59875,64521
59839,64564
59813,64614
59807,64634
59781,64659
59748,64559
59641,64508
59525,64478
59406,64472
59289,64488
59176,64528
59117,64559
59084,64659
57202,64659
57169,64567
57055,64511
56932,64479
56806,64471
56680,64489
56560,64530
56492,64567
56454,64671
49500,64671
51365,62805
52255,62805
52258,62809
52347,62899
52452,62969
52464,62974
52446,62986
52356,63075
52286,63180
52238,63297
52213,63421
52213,63547
52238,63671
52286,63787
52356,63892
52446,63981
52550,64051
52667,64100
52791,64124
52917,64124
53041,64100
53157,64051
53262,63981
53351,63892
53354,63888
62676,63888
62696,63890
62716,63888
62716,63888
62776,63882
62852,63859
62922,63822
62984,63771
62996,63756
64051,62701
64066,62688
64117,62627
64154,62557
64178,62480
64183,62421
64183,62421
64185,62401
64183,62381
64183,56996
64187,56993
64277,56904
64347,56799
64395,56682
64420,56559
64420,56432
64395,56309
64347,56192
64277,56087
64187,55998
64082,55928
63966,55880
63842,55855
63716,55855
63592,55880
63476,55928
63371,55998
63281,56087
63211,56192
63163,56309
63138,56432
63138,56559
63163,56682
63211,56799
63281,56904
63371,56993
63375,56996
63375,57017
63375,57017
63375,62234
63042,62566
63057,62519
63068,62401
63057,62283
63022,62170
62966,62065
62891,61974
62868,61955
62868,58980
62870,58960
62868,58940
62868,58940
62863,58881
62839,58805
62802,58734
62751,58673
62736,58660
62386,58310
62386,58310
61427,57352
61427,55618
61431,55615
61521,55526
61591,55421
61639,55304
61664,55181
61664,55094
63901,55094
63908,55130
63953,55238
64019,55334
64102,55416
64200,55480
64308,55524
64423,55546
64516,55484
64516,55002
64616,55002
64616,55484
64710,55546
64825,55524
64933,55480
65031,55416
65114,55334
65180,55238
65225,55130
65232,55094
65185,55002
64616,55002
64516,55002
63948,55002
63901,55094
61664,55094
61664,55055
61639,54931
61591,54814
61521,54709
61431,54620
61327,54550
61210,54502
61086,54477
60960,54477
60836,54502
60720,54550
60615,54620
60526,54709
60455,54814
60407,54931
60383,55055
60383,55181
60407,55304
60455,55421
60526,55526
60615,55615
60619,55618
60619,55925
60619,55925
60619,57375
60605,57420
60597,57500
60605,57579
60628,57655
60666,57725
60716,57787
60732,57799
61814,58882
61814,58882
62060,59128
62060,61955
62037,61974
61962,62065
61906,62170
61872,62283
61860,62401
61872,62519
61906,62632
61962,62737
62037,62828
62128,62903
62233,62959
62346,62994
62435,63002
62494,63002
62582,62994
62629,62979
62529,63079
53354,63079
53351,63075
53262,62986
53157,62916
53145,62911
53164,62899
53253,62809
53323,62704
53371,62588
53396,62464
53396,62342
57863,62342
57863,62460
57886,62576
57931,62686
57997,62784
58081,62868
58179,62934
58289,62979
58405,63002
58523,63002
58639,62979
58749,62934
58847,62868
58931,62784
58997,62686
59042,62576
59065,62460
59065,62342
59042,62226
58997,62116
58931,62018
58847,61934
58749,61868
58639,61823
58523,61800
58405,61800
58289,61823
58179,61868
58081,61934
57997,62018
57931,62116
57886,62226
57863,62342
53396,62342
53396,62338
53371,62214
53323,62098
53253,61993
53164,61904
53059,61833
52942,61785
52818,61761
52715,61761
52805,61733
52909,61677
53001,61602
53074,61513
53146,61602
53238,61677
53342,61733
53456,61768
53574,61779
53691,61768
53805,61733
53909,61677
54001,61602
54074,61513
54146,61602
54238,61677
54342,61733
54456,61768
54574,61779
54691,61768
54805,61733
54909,61677
55001,61602
55074,61513
55146,61602
55238,61677
55342,61733
55456,61768
55574,61779
55691,61768
55805,61733
55909,61677
56001,61602
56074,61513
56146,61602
56238,61677
56342,61733
56456,61768
56574,61779
56691,61768
56805,61733
56909,61677
57001,61602
57074,61513
57146,61602
57238,61677
57342,61733
57456,61768
57574,61779
57691,61768
57805,61733
57909,61677
58001,61602
58074,61513
58146,61602
58238,61677
58342,61733
58456,61768
58574,61779
58691,61768
58805,61733
58909,61677
59001,61602
59074,61513
59146,61602
59238,61677
59342,61733
59456,61768
59574,61779
59691,61768
59805,61733
59909,61677
60001,61602
60076,61511
60132,61406
60166,61293
60175,61205
60175,60594
60166,60506
60132,60393
60076,60288
60001,60197
59909,60122
59805,60066
59691,60031
59574,60020
59456,60031
59342,60066
59238,60122
59146,60197
59074,60286
59001,60197
58909,60122
58805,60066
58691,60031
58574,60020
58456,60031
58342,60066
58238,60122
58146,60197
58074,60286
58001,60197
57909,60122
57805,60066
57691,60031
57574,60020
57456,60031
57342,60066
57238,60122
57146,60197
57074,60286
57001,60197
56909,60122
56805,60066
56691,60031
56574,60020
56456,60031
56342,60066
56238,60122
56146,60197
56074,60286
56001,60197
55909,60122
55805,60066
55691,60031
55574,60020
55456,60031
55342,60066
55238,60122
55146,60197
55074,60286
55001,60197
54909,60122
54805,60066
54691,60031
54574,60020
54456,60031
54342,60066
54238,60122
54146,60197
54074,60286
54001,60197
53909,60122
53805,60066
53691,60031
53574,60020
53456,60031
53342,60066
53238,60122
53146,60197
53074,60286
53001,60197
52909,60122
52805,60066
52691,60031
52574,60020
52456,60031
52342,60066
52238,60122
52146,60197
52074,60286
52001,60197
51909,60122
51805,60066
51691,60031
51574,60020
51456,60031
51342,60066
51238,60122
51146,60197
51074,60286
51001,60197
50909,60122
50805,60066
50691,60031
50574,60020
50456,60031
50342,60066
50238,60122
50146,60197
50074,60286
50001,60197
49909,60122
49805,60066
49691,60031
49574,60020
49456,60031
49342,60066
49238,60122
49146,60197
49071,60288
49052,60324
49015,60268
48938,60189
48846,60126
48744,60083
48711,60076
48624,60124
48624,60850
48631,60850
48631,60950
48624,60950
48624,61675
48711,61723
48744,61716
48846,61673
48938,61610
49015,61531
49052,61475
49071,61511
49146,61602
49238,61677
49342,61733
49456,61768
49574,61779
49691,61768
49805,61733
49909,61677
50001,61602
50074,61513
50146,61602
50238,61677
50342,61733
50456,61768
50574,61779
50691,61768
50805,61733
50909,61677
51001,61602
51074,61513
51146,61602
51238,61677
51342,61733
51456,61768
51574,61779
51691,61768
51805,61733
51909,61677
52001,61602
52074,61513
52146,61602
52238,61677
52342,61733
52456,61768
52574,61779
52623,61774
52569,61785
52452,61833
52347,61904
52258,61993
52255,61997
51218,61997
51198,61995
51178,61997
51178,61997
51119,62003
51042,62026
50972,62063
50911,62114
50898,62129
48555,64472
48555,64472
47586,65442
45701,65442
45639,65379
45540,65313
45431,65268
45315,65245
45196,65245
45080,65268
44971,65313
44872,65379
44788,65463
44723,65561
44677,65671
44654,65787
44001,65787
44012,65776
44030,65762
44068,65715
44087,65691
44094,65678
44130,65611
44157,65523
44164,65455
44166,65433
44164,65410
44164,62265
44751,62265
44751,62934
44757,62990
44773,63044
44800,63094
44836,63138
44879,63173
44929,63200
44983,63216
45039,63222
45708,63222
45764,63216
45818,63200
45868,63173
45912,63138
45947,63094
45963,63065
46027,63118
46135,63176
46252,63211
46343,63220
46404,63220
46495,63211
46612,63176
46720,63118
46815,63041
46892,62946
46936,62865
47351,62865
47351,63534
47357,63590
47373,63644
47400,63694
47436,63738
47479,63773
47529,63800
47583,63816
47639,63822
48308,63822
48364,63816
48418,63800
48468,63773
48512,63738
48547,63694
48574,63644
48590,63590
48596,63534
48596,62865
48590,62809
48574,62755
48547,62705
48512,62661
48468,62626
48418,62599
48364,62583
48308,62577
47639,62577
47583,62583
47529,62599
47479,62626
47436,62661
47400,62705
47373,62755
47357,62809
47351,62865
46936,62865
46950,62838
46985,62721
46997,62600
46985,62478
46950,62361
46892,62253
46815,62158
46720,62081
46612,62023
46495,61988
46404,61979
46343,61979
46252,61988
46135,62023
46027,62081
45963,62134
45947,62105
45912,62061
45868,62026
45818,61999
45764,61983
45708,61977
45039,61977
44983,61983
44929,61999
44879,62026
44836,62061
44800,62105
44773,62155
44757,62209
44751,62265
44164,62265
44164,60309
44971,60309
44971,61490
44976,61546
44993,61600
45019,61650
45055,61693
45099,61729
45148,61756
45202,61772
45259,61778
45888,61778
45945,61772
45999,61756
46048,61729
46092,61693
46128,61650
46151,61606
46238,61677
46342,61733
46456,61768
46574,61779
46691,61768
46805,61733
46909,61677
47001,61602
47074,61513
47146,61602
47238,61677
47342,61733
47456,61768
47574,61779
47691,61768
47805,61733
47909,61677
48001,61602
48076,61511
48095,61475
48132,61531
48209,61610
48301,61673
48404,61716
48436,61723
48524,61675
48524,60950
48516,60950
48516,60850
48524,60850
48524,60124
48436,60076
48404,60083
48301,60126
48209,60189
48132,60268
48095,60324
48076,60288
48001,60197
47909,60122
47805,60066
47691,60031
47574,60020
47456,60031
47342,60066
47238,60122
47146,60197
47074,60286
47001,60197
46909,60122
46805,60066
46691,60031
46574,60020
46456,60031
46342,60066
46238,60122
46151,60193
46128,60149
46092,60106
46048,60070
45999,60043
45945,60027
45888,60021
45259,60021
45202,60027
45148,60043
45099,60070
45055,60106
45019,60149
44993,60199
44976,60253
44971,60309
44164,60309
44164,54594
44972,54594
44972,55205
44981,55293
45015,55406
45071,55511
45146,55602
45238,55677
45342,55733
45456,55768
45574,55779
45691,55768
45805,55733
45909,55677
46001,55602
46076,55511
46095,55475
46132,55531
46209,55610
46301,55673
46404,55716
46436,55723
46524,55675
46524,54950
46516,54950
46516,54850
46524,54850
46524,54124
46624,54124
46624,54850
46631,54850
46631,54950
46624,54950
46624,55675
46711,55723
46744,55716
46846,55673
46938,55610
47015,55531
47052,55475
47071,55511
47146,55602
47238,55677
47342,55733
47456,55768
47574,55779
47691,55768
47805,55733
47909,55677
48001,55602
48074,55513
48146,55602
48238,55677
48342,55733
48456,55768
48574,55779
48691,55768
48805,55733
48909,55677
49001,55602
49074,55513
49146,55602
49238,55677
49342,55733
49456,55768
49574,55779
49691,55768
49805,55733
49909,55677
50001,55602
50074,55513
50146,55602
50238,55677
50342,55733
50456,55768
50574,55779
50691,55768
50805,55733
50909,55677
51001,55602
51074,55513
51146,55602
51238,55677
51342,55733
51456,55768
51574,55779
51691,55768
51805,55733
51909,55677
52001,55602
52074,55513
52146,55602
52238,55677
52342,55733
52456,55768
52574,55779
52691,55768
52805,55733
52909,55677
53001,55602
53074,55513
53146,55602
53238,55677
53342,55733
53456,55768
53574,55779
53691,55768
53805,55733
53909,55677
54001,55602
54074,55513
54146,55602
54238,55677
54342,55733
54456,55768
54574,55779
54691,55768
54805,55733
54909,55677
55001,55602
55074,55513
55146,55602
55238,55677
55342,55733
55456,55768
55574,55779
55691,55768
55805,55733
55909,55677
56001,55602
56074,55513
56146,55602
56238,55677
56342,55733
56456,55768
56574,55779
56691,55768
56805,55733
56909,55677
57001,55602
57074,55513
57146,55602
57238,55677
57342,55733
57456,55768
57574,55779
57691,55768
57805,55733
57909,55677
58001,55602
58074,55513
58146,55602
58238,55677
58342,55733
58456,55768
58574,55779
58691,55768
58805,55733
58909,55677
59001,55602
59074,55513
59146,55602
59238,55677
59342,55733
59456,55768
59574,55779
59691,55768
59805,55733
59909,55677
60001,55602
60076,55511
60132,55406
60166,55293
60175,55205
60175,54594
60166,54506
60132,54393
60076,54288
60001,54197
59909,54122
59805,54066
59691,54031
59574,54020
59456,54031
59342,54066
59238,54122
59146,54197
59074,54286
59001,54197
58909,54122
58805,54066
58691,54031
58574,54020
58456,54031
58342,54066
58238,54122
58146,54197
58074,54286
58001,54197
57909,54122
57805,54066
57691,54031
57574,54020
57456,54031
57342,54066
57238,54122
57146,54197
57074,54286
57001,54197
56909,54122
56805,54066
56691,54031
56574,54020
56456,54031
56342,54066
56238,54122
56146,54197
56074,54286
56001,54197
55909,54122
55805,54066
55691,54031
55574,54020
55456,54031
55342,54066
55238,54122
55146,54197
55074,54286
55001,54197
54909,54122
54805,54066
54691,54031
54574,54020
54456,54031
54342,54066
54238,54122
54146,54197
54074,54286
54001,54197
53909,54122
53805,54066
53691,54031
53574,54020
53456,54031
53342,54066
53238,54122
53146,54197
53074,54286
53001,54197
52909,54122
52805,54066
52691,54031
52574,54020
52456,54031
52342,54066
52238,54122
52146,54197
52074,54286
52001,54197
51909,54122
51805,54066
51691,54031
51574,54020
51456,54031
51342,54066
51238,54122
51146,54197
51074,54286
51001,54197
50909,54122
50805,54066
50691,54031
50574,54020
50456,54031
50342,54066
50238,54122
50146,54197
50074,54286
50001,54197
49909,54122
49805,54066
49691,54031
49574,54020
49456,54031
49342,54066
49238,54122
49146,54197
49074,54286
49001,54197
48909,54122
48805,54066
48691,54031
48574,54020
48456,54031
48342,54066
48238,54122
48146,54197
48074,54286
48001,54197
47909,54122
47805,54066
47691,54031
47574,54020
47456,54031
47342,54066
47238,54122
47146,54197
47071,54288
47052,54324
47015,54268
46938,54189
46846,54126
46744,54083
46711,54076
46624,54124
46524,54124
46436,54076
46404,54083
46301,54126
46209,54189
46132,54268
46095,54324
46076,54288
46001,54197
45909,54122
45805,54066
45691,54031
45574,54020
45456,54031
45342,54066
45238,54122
45146,54197
45071,54288
45015,54393
44981,54506
44972,54594
44164,54594
44164,54070
44224,54110
44340,54159
44464,54183
44590,54183
44714,54159
44830,54110
44935,54040
45023,53952
63844,53952
63856,54076
63892,54194
63951,54303
64029,54399
64122,54475
64102,54488
64019,54570
63953,54667
63908,54774
63901,54811
63948,54902
64516,54902
64516,54894
64616,54894
64616,54902
65185,54902
65232,54811
65225,54774
65180,54667
65114,54570
65031,54488
65011,54475
65104,54399
65182,54303
65241,54194
65277,54076
65289,53952
65277,53829
65241,53710
65182,53601
65114,53518
65116,53517
65174,53469
65222,53411
65258,53344
65280,53272
65287,53196
65287,52708
65280,52633
65258,52560
65222,52494
65174,52435
65116,52387
65049,52352
64976,52330
64901,52322
64232,52322
64156,52330
64084,52352
64017,52387
63959,52435
63911,52494
63875,52560
63853,52633
63846,52708
63846,53196
63853,53272
63875,53344
63911,53411
63959,53469
64017,53517
64019,53518
63951,53601
63892,53710
63856,53829
63844,53952
45023,53952
45025,53951
45095,53846
45143,53730
45168,53606
45168,53480
45143,53356
45095,53239
45025,53134
44990,53100
44990,52227
44993,52204
44984,52113
44967,52057
44957,52026
44914,51946
44856,51875
44839,51860
44202,51223
44187,51206
44116,51148
44036,51105
43949,51078
43881,51072
43858,51069
43835,51072
42436,51072
42139,50775
42956,50775
43029,50909
43194,50994
43371,51045
43556,51061
43740,51040
43916,50984
44056,50909
44129,50775
43543,50188
42956,50775
42139,50775
41764,50400
41801,50214
41801,50022
41764,49833
41691,49656
41584,49496
41566,49479
42848,49479
42840,49486
42885,49531
42751,49604
42666,49769
42615,49946
42599,50131
42620,50314
42676,50491
42751,50631
42885,50704
43472,50118
43467,50112
43537,50041
43543,50047
43548,50041
43619,50112
43614,50118
44200,50704
44334,50631
44419,50467
44471,50289
44486,50105
44466,49921
44409,49745
44334,49604
44200,49531
44245,49486
44238,49479
44397,49479
47933,53015
47933,53063
47958,53187
48006,53304
48076,53409
48165,53498
48270,53568
48387,53616
48510,53641
48637,53641
48760,53616
48877,53568
48982,53498
49071,53409
49141,53304
49189,53187
49214,53063
49214,52937
49189,52813
49141,52697
49071,52592
49037,52558
49037,51955
49039,51932
49030,51842
49016,51794
49004,51754
48961,51674
48921,51626
48917,51621
48917,51621
48903,51603
48885,51589
47867,50571
49894,50571
49894,50834
49903,50934
49942,51063
50005,51181
50090,51284
50194,51369
50251,51400
50194,51430
50090,51515
50005,51618
49942,51736
49903,51865
49894,51965
49894,52228
49903,52328
49942,52456
50005,52574
50090,52678
50194,52763
50312,52826
50440,52865
50574,52878
50707,52865
50835,52826
50953,52763
51057,52678
51074,52657
51090,52678
51194,52763
51312,52826
51440,52865
51574,52878
51707,52865
51835,52826
51953,52763
52057,52678
52074,52657
52090,52678
52194,52763
52312,52826
52440,52865
52574,52878
52707,52865
52835,52826
52953,52763
53057,52678
53074,52657
53090,52678
53194,52763
53312,52826
53440,52865
53574,52878
53707,52865
53835,52826
53953,52763
54057,52678
54074,52657
54090,52678
54194,52763
54312,52826
54440,52865
54574,52878
54707,52865
54835,52826
54953,52763
55057,52678
55074,52657
55090,52678
55194,52763
55312,52826
55440,52865
55574,52878
55707,52865
55835,52826
55953,52763
56057,52678
56074,52657
56090,52678
56194,52763
56312,52826
56440,52865
56574,52878
56707,52865
56835,52826
56953,52763
57057,52678
57074,52657
57090,52678
57194,52763
57312,52826
57440,52865
57574,52878
57707,52865
57835,52826
57953,52763
58057,52678
58142,52574
58205,52456
58244,52328
58253,52228
58253,51965
58244,51865
58205,51736
58142,51618
58057,51515
57953,51430
57944,51425
66377,51425
66377,64716
67983,64716
67983,51425
66377,51425
57944,51425
57896,51400
57953,51369
58057,51284
58142,51181
58205,51063
58244,50934
58253,50834
58253,50571
58244,50471
58205,50343
58149,50238
61820,50238
61820,50430
61857,50619
61931,50796
62037,50956
62173,51092
62333,51198
62510,51272
62699,51309
62891,51309
63079,51272
63257,51198
63416,51092
63552,50956
63659,50796
63732,50619
63770,50430
63770,50238
63732,50050
63659,49872
63552,49712
63416,49577
63257,49470
63079,49396
62891,49359
62699,49359
62510,49396
62333,49470
62173,49577
62037,49712
61931,49872
61857,50050
61820,50238
58149,50238
58142,50225
58057,50121
57953,50036
57835,49973
57707,49934
57574,49921
57440,49934
57312,49973
57194,50036
57090,50121
57074,50142
57057,50121
56953,50036
56835,49973
56707,49934
56574,49921
56440,49934
56312,49973
56194,50036
56090,50121
56074,50142
56057,50121
55953,50036
55835,49973
55707,49934
55574,49921
55440,49934
55312,49973
55194,50036
55090,50121
55074,50142
55057,50121
54953,50036
54835,49973
54707,49934
54574,49921
54440,49934
54312,49973
54194,50036
54090,50121
54074,50142
54057,50121
53953,50036
53835,49973
53707,49934
53574,49921
53440,49934
53312,49973
53194,50036
53090,50121
53074,50142
53057,50121
52953,50036
52835,49973
52707,49934
52574,49921
52440,49934
52312,49973
52194,50036
52090,50121
52050,50170
51992,50110
51888,50038
51771,49988
51723,49978
51624,50025
51624,50653
51631,50653
51631,50753
51624,50753
51624,50761
51524,50761
51524,50753
51516,50753
51516,50653
51524,50653
51524,50025
51424,49978
51376,49988
51259,50038
51155,50110
51097,50170
51057,50121
50953,50036
50835,49973
50707,49934
50574,49921
50440,49934
50312,49973
50194,50036
50090,50121
50005,50225
49942,50343
49903,50471
49894,50571
47867,50571
47088,49791
47082,49730
47047,49617
46992,49513
46917,49421
46825,49346
46721,49290
46607,49256
46519,49247
46460,49247
46371,49256
46258,49290
46154,49346
46062,49421
45987,49513
45931,49617
45911,49683
44932,48704
44918,48686
44847,48628
44767,48585
44679,48559
44611,48552
44588,48550
44566,48552
37818,48552
37795,48550
37772,48552
37704,48559
37617,48585
37536,48628
37466,48686
37451,48704
35404,50751
35404,49133
35403,49124
35400,49114
35395,49106
35389,49098
35382,49092
35373,49087
35364,49084
35354,49083
18346,49083
18336,49084
18327,49087
18318,49092
18311,49098
18304,49106
18300,49114
18297,49124
18296,49133
18296,52636
17592,52636
17569,52634
17546,52636
17478,52643
17391,52669
17310,52712
17240,52770
17225,52788
17011,53002
17011,53002
14709,55304
14661,55304
14537,55328
14420,55377
14316,55447
14226,55536
14156,55641
14108,55758
14083,55881
13412,55881
13416,47874
68886,47894
Z" /> 
<path style="fill:#FFFFFF; fill-opacity:1.0; 
stroke:#FFFFFF; stroke-width:100; stroke-opacity:1; 
stroke-linecap:round; stroke-linejoin:round;fill-rule:evenodd;"
d="M 40069,49496
39962,49656
39889,49833
39851,50022
39851,50214
39889,50402
39962,50580
40069,50739
40205,50875
40364,50982
40542,51055
40730,51093
40922,51093
41109,51056
41900,51847
41914,51864
41932,51879
41932,51879
41970,51910
41985,51922
42065,51965
42153,51992
42244,52001
42266,51998
43666,51998
43749,52081
43720,52075
43602,52075
43486,52099
43376,52144
43278,52210
43194,52293
43128,52392
43083,52501
43060,52617
43060,52706
41407,54359
40853,54359
40852,54353
40836,54299
40810,54249
40774,54206
40730,54170
40680,54143
40626,54127
40570,54121
39862,54121
39806,54127
39752,54143
39702,54170
39658,54206
39623,54249
39596,54299
39580,54353
39574,54409
39574,55118
39580,55174
39596,55228
39623,55277
39658,55321
39702,55357
39752,55383
39771,55389
39797,55415
39697,55448
39646,55555
39616,55671
39609,55789
39626,55907
39666,56020
39697,56079
39797,56111
40145,55763
40140,55758
40210,55687
40216,55693
40222,55687
40292,55758
40287,55763
40635,56111
40735,56079
40787,55971
40816,55856
40823,55737
40806,55619
40767,55507
40735,55448
40635,55415
40661,55389
40680,55383
40730,55357
40774,55321
40810,55277
40836,55228
40852,55174
40853,55168
41554,55168
41574,55170
41594,55168
41594,55168
41654,55162
41730,55139
41800,55101
41862,55051
41874,55035
43632,53278
43636,53278
43389,53525
43371,53539
43313,53610
43270,53690
43244,53775
43244,53778
43235,53868
43237,53891
43237,57162
43237,57162
43237,65241
42308,66170
41715,66170
41740,66136
41787,66036
41803,65983
41755,65896
41305,65896
41305,65904
41205,65904
41205,65896
40755,65896
40707,65983
40723,66036
40771,66136
40796,66170
39217,66170
39242,66040
39242,65848
39215,65709
40707,65709
40755,65796
41205,65796
41205,65346
41305,65346
41305,65796
41755,65796
41803,65709
41787,65656
41740,65556
41674,65467
41592,65392
41497,65335
41393,65298
41305,65346
41205,65346
41118,65298
41014,65335
40919,65392
40837,65467
40771,65556
40723,65656
40707,65709
39215,65709
39205,65660
39131,65482
39025,65323
38948,65246
39892,65246
39915,65249
39938,65246
40006,65240
40093,65213
40174,65170
40182,65163
40186,65168
40289,65253
40407,65316
40536,65355
40669,65368
40802,65355
40930,65316
41048,65253
41152,65168
41237,65064
41300,64946
41339,64818
41349,64718
41349,64454
41339,64354
41300,64226
41237,64108
41152,64005
41132,63988
41132,62625
41152,62609
41237,62505
41300,62387
41339,62259
41349,62159
41349,61895
41349,61895
41761,61895
41761,62159
41770,62259
41809,62387
41872,62505
41957,62609
42036,62673
42036,63940
41957,64005
41872,64108
41809,64226
41770,64354
41761,64454
41761,64718
41770,64818
41809,64946
41872,65064
41957,65168
42061,65253
42179,65316
42307,65355
42440,65368
42574,65355
42702,65316
42820,65253
42924,65168
43009,65064
43072,64946
43111,64818
43120,64718
43120,64454
43111,64354
43072,64226
43009,64108
42924,64005
42845,63940
42845,62673
42924,62609
43009,62505
43072,62387
43111,62259
43120,62159
43120,61895
43111,61795
43072,61667
43009,61549
42924,61446
42820,61361
42702,61297
42574,61259
42440,61245
42307,61259
42179,61297
42061,61361
41957,61446
41872,61549
41809,61667
41770,61795
41761,61895
41349,61895
41339,61795
41300,61667
41237,61549
41152,61446
41048,61361
40930,61297
40802,61259
40669,61245
40536,61259
40407,61297
40289,61361
40186,61446
40101,61549
40038,61667
39999,61795
39989,61895
39989,62159
39999,62259
40038,62387
40101,62505
40186,62609
40205,62625
40205,63988
40186,64005
40101,64108
40093,64122
40089,64123
40021,64129
39934,64156
39853,64199
39783,64257
39768,64275
39723,64320
38580,64320
38662,64275
38736,64141
38149,63554
37562,64141
37636,64275
37721,64320
36136,64320
35404,63587
35404,63497
37206,63497
37226,63681
37282,63857
37357,63997
37492,64070
38078,63484
38220,63484
38806,64070
38941,63997
39026,63833
39077,63655
39093,63471
39072,63287
39016,63111
38941,62970
38806,62897
38220,63484
38078,63484
37492,62897
37357,62970
37273,63135
37221,63312
37206,63497
35404,63497
35404,62826
37562,62826
38149,63413
38736,62826
38662,62692
38498,62607
38320,62556
38136,62540
37952,62561
37776,62617
37636,62692
37562,62826
35404,62826
35404,61144
37095,61144
37095,61336
37133,61524
37206,61702
37313,61861
37449,61997
37608,62104
37786,62177
37974,62215
38166,62215
38355,62177
38532,62104
38692,61997
38828,61861
38935,61702
39008,61524
39046,61336
39046,61144
39008,60955
38935,60778
38828,60618
38692,60482
38532,60375
38355,60302
38166,60264
37974,60264
37786,60302
37608,60375
37449,60482
37313,60618
37206,60778
37133,60955
37095,61144
35404,61144
35404,58818
37112,58818
37125,58952
37164,59080
37227,59198
37312,59302
37415,59386
37533,59450
37661,59488
37761,59498
38025,59498
38125,59488
38253,59450
38371,59386
38475,59302
38560,59198
38623,59080
38662,58952
38675,58818
38662,58685
38623,58557
38560,58439
38475,58335
38371,58250
38253,58187
38125,58148
38025,58138
37761,58138
37661,58148
37533,58187
37415,58250
37312,58335
37227,58439
37164,58557
37125,58685
37112,58818
35404,58818
35404,57443
37108,57443
37121,57576
37160,57705
37223,57823
37308,57926
37412,58011
37530,58074
37658,58113
37758,58123
38021,58123
38121,58113
38250,58074
38368,58011
38471,57926
38556,57823
38619,57705
38658,57576
38671,57443
38658,57310
38619,57182
38556,57064
38471,56960
38368,56875
38250,56812
38121,56773
38117,56773
38125,56772
38253,56733
38371,56670
38475,56585
38560,56481
38623,56363
38662,56235
38667,56182
39868,56182
39901,56282
40008,56334
40123,56363
40242,56370
40360,56353
40472,56314
40531,56282
40564,56182
40216,55834
39868,56182
38667,56182
38675,56102
38662,55969
38623,55840
38560,55722
38475,55619
38371,55534
38253,55471
38125,55432
38025,55422
37761,55422
37661,55432
37533,55471
37415,55534
37312,55619
37227,55722
37164,55840
37125,55969
37112,56102
37125,56235
37164,56363
37227,56481
37312,56585
37415,56670
37533,56733
37661,56772
37666,56772
37658,56773
37530,56812
37412,56875
37308,56960
37223,57064
37160,57182
37121,57310
37108,57443
35404,57443
35404,54173
37072,54173
37085,54306
37124,54434
37187,54552
37272,54656
37376,54741
37494,54804
37622,54843
37722,54853
37986,54853
38086,54843
38214,54804
38332,54741
38435,54656
38520,54552
38583,54434
38622,54306
38635,54173
38622,54039
38583,53911
38520,53793
38435,53690
38332,53605
38214,53542
38140,53519
38253,53485
38371,53422
38475,53337
38560,53233
38623,53115
38662,52987
38675,52854
38662,52721
38623,52592
38560,52474
38475,52371
38371,52286
38253,52223
38225,52214
38253,52206
38371,52142
38475,52057
38560,51954
38623,51836
38662,51708
38675,51574
38662,51441
38623,51313
38560,51195
38475,51091
38371,51006
38253,50943
38125,50904
38025,50894
37761,50894
37661,50904
37533,50943
37415,51006
37312,51091
37227,51195
37164,51313
37125,51441
37112,51574
37125,51708
37164,51836
37227,51954
37312,52057
37415,52142
37533,52206
37562,52214
37533,52223
37415,52286
37312,52371
37227,52474
37164,52592
37125,52721
37112,52854
37125,52987
37164,53115
37227,53233
37312,53337
37415,53422
37533,53485
37607,53507
37494,53542
37376,53605
37272,53690
37187,53793
37124,53911
37085,54039
37072,54173
35404,54173
35404,52062
37987,49479
40086,49479
40069,49496
Z" /> 
</g>
</g>
<g style="fill:#000000; fill-opacity:1.0; 
stroke:#000000; stroke-width:100; stroke-opacity:1; 
stroke-linecap:round; stroke-linejoin:round;">
</g>
<g style="fill:#000000; fill-opacity:1.0; 
stroke:#000000; stroke-width:0; stroke-opacity:1; 
stroke-linecap:round; stroke-linejoin:round;">
<circle cx="46515.7" cy="53090.6" r="68.8976" /> 
</g>
<g style="fill:#000000; fill-opacity:1.0; 
stroke:#000000; stroke-width:39.3701; stroke-opacity:1; 
stroke-linecap:round; stroke-linejoin:round;">
</g>
<g style="fill:#000000; fill-opacity:1.0; 
stroke:#000000; stroke-width:0; stroke-opacity:1; 
stroke-linecap:round; stroke-linejoin:round;">
<circle cx="52854.3" cy="63484.3" r="68.8976" /> 
</g>
<g style="fill:#000000; fill-opacity:1.0; 
stroke:#000000; stroke-width:39.3701; stroke-opacity:1; 
stroke-linecap:round; stroke-linejoin:round;">
</g>
<g style="fill:#000000; fill-opacity:1.0; 
stroke:#000000; stroke-width:0; stroke-opacity:1; 
stroke-linecap:round; stroke-linejoin:round;">
<circle cx="61023.6" cy="55118.1" r="68.8976" /> 
</g>
<g style="fill:#000000; fill-opacity:1.0; 
stroke:#000000; stroke-width:39.3701; stroke-opacity:1; 
stroke-linecap:round; stroke-linejoin:round;">
</g>
<g style="fill:#000000; fill-opacity:1.0; 
stroke:#000000; stroke-width:0; stroke-opacity:1; 
stroke-linecap:round; stroke-linejoin:round;">
<circle cx="48574" cy="53000.8" r="68.8976" /> 
</g>
<g style="fill:#000000; fill-opacity:1.0; 
stroke:#000000; stroke-width:39.3701; stroke-opacity:1; 
stroke-linecap:round; stroke-linejoin:round;">
</g>
<g style="fill:#000000; fill-opacity:1.0; 
stroke:#000000; stroke-width:0; stroke-opacity:1; 
stroke-linecap:round; stroke-linejoin:round;">
<circle cx="14724.4" cy="55944.9" r="68.8976" /> 
</g>
<g style="fill:#000000; fill-opacity:1.0; 
stroke:#000000; stroke-width:39.3701; stroke-opacity:1; 
stroke-linecap:round; stroke-linejoin:round;">
</g>
<g style="fill:#000000; fill-opacity:1.0; 
stroke:#000000; stroke-width:0; stroke-opacity:1; 
stroke-linecap:round; stroke-linejoin:round;">
<circle cx="65551.2" cy="56496.1" r="68.8976" /> 
</g>
<g style="fill:#000000; fill-opacity:1.0; 
stroke:#000000; stroke-width:39.3701; stroke-opacity:1; 
stroke-linecap:round; stroke-linejoin:round;">
</g>
<g style="fill:#000000; fill-opacity:1.0; 
stroke:#000000; stroke-width:0; stroke-opacity:1; 
stroke-linecap:round; stroke-linejoin:round;">
<circle cx="63779.5" cy="56496.1" r="68.8976" /> 
</g>
<g style="fill:#000000; fill-opacity:1.0; 
stroke:#000000; stroke-width:39.3701; stroke-opacity:1; 
stroke-linecap:round; stroke-linejoin:round;">
</g>
<g style="fill:#000000; fill-opacity:1.0; 
stroke:#000000; stroke-width:0; stroke-opacity:1; 
stroke-linecap:round; stroke-linejoin:round;">
<circle cx="44527.6" cy="53543.3" r="68.8976" /> 
</g>
<g style="fill:#000000; fill-opacity:1.0; 
stroke:#000000; stroke-width:39.3701; stroke-opacity:1; 
stroke-linecap:round; stroke-linejoin:round;">
</g>
<g style="fill:#000000; fill-opacity:1.0; 
stroke:#000000; stroke-width:0; stroke-opacity:1; 
stroke-linecap:round; stroke-linejoin:round;">
<circle cx="52755.9" cy="62401.6" r="68.8976" /> 
</g>
<g style="fill:#000000; fill-opacity:1.0; 
stroke:#000000; stroke-width:39.3701; stroke-opacity:1; 
stroke-linecap:round; stroke-linejoin:round;">
</g>
<g style="fill:#000000; fill-opacity:1.0; 
stroke:#000000; stroke-width:0; stroke-opacity:1; 
stroke-linecap:round; stroke-linejoin:round;">
<circle cx="19500" cy="65300" r="68.8976" /> 
</g>
<g style="fill:#000000; fill-opacity:1.0; 
stroke:#000000; stroke-width:39.3701; stroke-opacity:1; 
stroke-linecap:round; stroke-linejoin:round;">
</g>
<g style="fill:#000000; fill-opacity:1.0; 
stroke:#000000; stroke-width:0; stroke-opacity:1; 
stroke-linecap:round; stroke-linejoin:round;">
<circle cx="19500" cy="50300" r="68.8976" /> 
</g>
<g style="fill:#000000; fill-opacity:1.0; 
stroke:#000000; stroke-width:39.3701; stroke-opacity:1; 
stroke-linecap:round; stroke-linejoin:round;">
</g>
<g style="fill:#000000; fill-opacity:1.0; 
stroke:#000000; stroke-width:0; stroke-opacity:1; 
stroke-linecap:round; stroke-linejoin:round;">
<circle cx="34250" cy="50300" r="68.8976" /> 
</g>
<g style="fill:#000000; fill-opacity:1.0; 
stroke:#000000; stroke-width:39.3701; stroke-opacity:1; 
stroke-linecap:round; stroke-linejoin:round;">
</g>
<g style="fill:#000000; fill-opacity:1.0; 
stroke:#000000; stroke-width:0; stroke-opacity:1; 
stroke-linecap:round; stroke-linejoin:round;">
<circle cx="34250" cy="65300" r="68.8976" /> 
</g>
<g style="fill:#000000; fill-opacity:1.0; 
stroke:#000000; stroke-width:39.3701; stroke-opacity:1; 
stroke-linecap:round; stroke-linejoin:round;">
</g>
<g style="fill:#000000; fill-opacity:1.0; 
stroke:#000000; stroke-width:0; stroke-opacity:1; 
stroke-linecap:round; stroke-linejoin:round;">
<circle cx="45574" cy="60900" r="68.8976" /> 
</g>
<g style="fill:#000000; fill-opacity:1.0; 
stroke:#000000; stroke-width:39.3701; stroke-opacity:1; 
stroke-linecap:round; stroke-linejoin:round;">
</g>
<g style="fill:#000000; fill-opacity:1.0; 
stroke:#000000; stroke-width:0; stroke-opacity:1; 
stroke-linecap:round; stroke-linejoin:round;">
<circle cx="58574" cy="54900" r="68.8976" /> 
</g>
<g style="fill:#000000; fill-opacity:1.0; 
stroke:#000000; stroke-width:39.3701; stroke-opacity:1; 
stroke-linecap:round; stroke-linejoin:round;">
</g>
<g style="fill:#000000; fill-opacity:1.0; 
stroke:#000000; stroke-width:0; stroke-opacity:1; 
stroke-linecap:round; stroke-linejoin:round;">
<circle cx="46574" cy="60900" r="68.8976" /> 
</g>
<g style="fill:#000000; fill-opacity:1.0; 
stroke:#000000; stroke-width:39.3701; stroke-opacity:1; 
stroke-linecap:round; stroke-linejoin:round;">
</g>
<g style="fill:#000000; fill-opacity:1.0; 
stroke:#000000; stroke-width:0; stroke-opacity:1; 
stroke-linecap:round; stroke-linejoin:round;">
<circle cx="57574" cy="54900" r="68.8976" /> 
</g>
<g style="fill:#000000; fill-opacity:1.0; 
stroke:#000000; stroke-width:39.3701; stroke-opacity:1; 
stroke-linecap:round; stroke-linejoin:round;">
</g>
<g style="fill:#000000; fill-opacity:1.0; 
stroke:#000000; stroke-width:0; stroke-opacity:1; 
stroke-linecap:round; stroke-linejoin:round;">
<circle cx="47574" cy="60900" r="68.8976" /> 
</g>
<g style="fill:#000000; fill-opacity:1.0; 
stroke:#000000; stroke-width:39.3701; stroke-opacity:1; 
stroke-linecap:round; stroke-linejoin:round;">
</g>
<g style="fill:#000000; fill-opacity:1.0; 
stroke:#000000; stroke-width:0; stroke-opacity:1; 
stroke-linecap:round; stroke-linejoin:round;">
<circle cx="56574" cy="54900" r="68.8976" /> 
</g>
<g style="fill:#000000; fill-opacity:1.0; 
stroke:#000000; stroke-width:39.3701; stroke-opacity:1; 
stroke-linecap:round; stroke-linejoin:round;">
</g>
<g style="fill:#000000; fill-opacity:1.0; 
stroke:#000000; stroke-width:0; stroke-opacity:1; 
stroke-linecap:round; stroke-linejoin:round;">
<circle cx="48574" cy="60900" r="68.8976" /> 
</g>
<g style="fill:#000000; fill-opacity:1.0; 
stroke:#000000; stroke-width:39.3701; stroke-opacity:1; 
stroke-linecap:round; stroke-linejoin:round;">
</g>
<g style="fill:#000000; fill-opacity:1.0; 
stroke:#000000; stroke-width:0; stroke-opacity:1; 
stroke-linecap:round; stroke-linejoin:round;">
<circle cx="55574" cy="54900" r="68.8976" /> 
</g>
<g style="fill:#000000; fill-opacity:1.0; 
stroke:#000000; stroke-width:39.3701; stroke-opacity:1; 
stroke-linecap:round; stroke-linejoin:round;">
</g>
<g style="fill:#000000; fill-opacity:1.0; 
stroke:#000000; stroke-width:0; stroke-opacity:1; 
stroke-linecap:round; stroke-linejoin:round;">
<circle cx="49574" cy="60900" r="68.8976" /> 
</g>
<g style="fill:#000000; fill-opacity:1.0; 
stroke:#000000; stroke-width:39.3701; stroke-opacity:1; 
stroke-linecap:round; stroke-linejoin:round;">
</g>
<g style="fill:#000000; fill-opacity:1.0; 
stroke:#000000; stroke-width:0; stroke-opacity:1; 
stroke-linecap:round; stroke-linejoin:round;">
<circle cx="54574" cy="54900" r="68.8976" /> 
</g>
<g style="fill:#000000; fill-opacity:1.0; 
stroke:#000000; stroke-width:39.3701; stroke-opacity:1; 
stroke-linecap:round; stroke-linejoin:round;">
</g>
<g style="fill:#000000; fill-opacity:1.0; 
stroke:#000000; stroke-width:0; stroke-opacity:1; 
stroke-linecap:round; stroke-linejoin:round;">
<circle cx="50574" cy="60900" r="68.8976" /> 
</g>
<g style="fill:#000000; fill-opacity:1.0; 
stroke:#000000; stroke-width:39.3701; stroke-opacity:1; 
stroke-linecap:round; stroke-linejoin:round;">
</g>
<g style="fill:#000000; fill-opacity:1.0; 
stroke:#000000; stroke-width:0; stroke-opacity:1; 
stroke-linecap:round; stroke-linejoin:round;">
<circle cx="53574" cy="54900" r="68.8976" /> 
</g>
<g style="fill:#000000; fill-opacity:1.0; 
stroke:#000000; stroke-width:39.3701; stroke-opacity:1; 
stroke-linecap:round; stroke-linejoin:round;">
</g>
<g style="fill:#000000; fill-opacity:1.0; 
stroke:#000000; stroke-width:0; stroke-opacity:1; 
stroke-linecap:round; stroke-linejoin:round;">
<circle cx="51574" cy="60900" r="68.8976" /> 
</g>
<g style="fill:#000000; fill-opacity:1.0; 
stroke:#000000; stroke-width:39.3701; stroke-opacity:1; 
stroke-linecap:round; stroke-linejoin:round;">
</g>
<g style="fill:#000000; fill-opacity:1.0; 
stroke:#000000; stroke-width:0; stroke-opacity:1; 
stroke-linecap:round; stroke-linejoin:round;">
<circle cx="52574" cy="54900" r="68.8976" /> 
</g>
<g style="fill:#000000; fill-opacity:1.0; 
stroke:#000000; stroke-width:39.3701; stroke-opacity:1; 
stroke-linecap:round; stroke-linejoin:round;">
</g>
<g style="fill:#000000; fill-opacity:1.0; 
stroke:#000000; stroke-width:0; stroke-opacity:1; 
stroke-linecap:round; stroke-linejoin:round;">
<circle cx="52574" cy="60900" r="68.8976" /> 
</g>
<g style="fill:#000000; fill-opacity:1.0; 
stroke:#000000; stroke-width:39.3701; stroke-opacity:1; 
stroke-linecap:round; stroke-linejoin:round;">
</g>
<g style="fill:#000000; fill-opacity:1.0; 
stroke:#000000; stroke-width:0; stroke-opacity:1; 
stroke-linecap:round; stroke-linejoin:round;">
<circle cx="51574" cy="54900" r="68.8976" /> 
</g>
<g style="fill:#000000; fill-opacity:1.0; 
stroke:#000000; stroke-width:39.3701; stroke-opacity:1; 
stroke-linecap:round; stroke-linejoin:round;">
</g>
<g style="fill:#000000; fill-opacity:1.0; 
stroke:#000000; stroke-width:0; stroke-opacity:1; 
stroke-linecap:round; stroke-linejoin:round;">
<circle cx="53574" cy="60900" r="68.8976" /> 
</g>
<g style="fill:#000000; fill-opacity:1.0; 
stroke:#000000; stroke-width:39.3701; stroke-opacity:1; 
stroke-linecap:round; stroke-linejoin:round;">
</g>
<g style="fill:#000000; fill-opacity:1.0; 
stroke:#000000; stroke-width:0; stroke-opacity:1; 
stroke-linecap:round; stroke-linejoin:round;">
<circle cx="50574" cy="54900" r="68.8976" /> 
</g>
<g style="fill:#000000; fill-opacity:1.0; 
stroke:#000000; stroke-width:39.3701; stroke-opacity:1; 
stroke-linecap:round; stroke-linejoin:round;">
</g>
<g style="fill:#000000; fill-opacity:1.0; 
stroke:#000000; stroke-width:0; stroke-opacity:1; 
stroke-linecap:round; stroke-linejoin:round;">
<circle cx="54574" cy="60900" r="68.8976" /> 
</g>
<g style="fill:#000000; fill-opacity:1.0; 
stroke:#000000; stroke-width:39.3701; stroke-opacity:1; 
stroke-linecap:round; stroke-linejoin:round;">
</g>
<g style="fill:#000000; fill-opacity:1.0; 
stroke:#000000; stroke-width:0; stroke-opacity:1; 
stroke-linecap:round; stroke-linejoin:round;">
<circle cx="49574" cy="54900" r="68.8976" /> 
</g>
<g style="fill:#000000; fill-opacity:1.0; 
stroke:#000000; stroke-width:39.3701; stroke-opacity:1; 
stroke-linecap:round; stroke-linejoin:round;">
</g>
<g style="fill:#000000; fill-opacity:1.0; 
stroke:#000000; stroke-width:0; stroke-opacity:1; 
stroke-linecap:round; stroke-linejoin:round;">
<circle cx="55574" cy="60900" r="68.8976" /> 
</g>
<g style="fill:#000000; fill-opacity:1.0; 
stroke:#000000; stroke-width:39.3701; stroke-opacity:1; 
stroke-linecap:round; stroke-linejoin:round;">
</g>
<g style="fill:#000000; fill-opacity:1.0; 
stroke:#000000; stroke-width:0; stroke-opacity:1; 
stroke-linecap:round; stroke-linejoin:round;">
<circle cx="48574" cy="54900" r="68.8976" /> 
</g>
<g style="fill:#000000; fill-opacity:1.0; 
stroke:#000000; stroke-width:39.3701; stroke-opacity:1; 
stroke-linecap:round; stroke-linejoin:round;">
</g>
<g style="fill:#000000; fill-opacity:1.0; 
stroke:#000000; stroke-width:0; stroke-opacity:1; 
stroke-linecap:round; stroke-linejoin:round;">
<circle cx="56574" cy="60900" r="68.8976" /> 
</g>
<g style="fill:#000000; fill-opacity:1.0; 
stroke:#000000; stroke-width:39.3701; stroke-opacity:1; 
stroke-linecap:round; stroke-linejoin:round;">
</g>
<g style="fill:#000000; fill-opacity:1.0; 
stroke:#000000; stroke-width:0; stroke-opacity:1; 
stroke-linecap:round; stroke-linejoin:round;">
<circle cx="47574" cy="54900" r="68.8976" /> 
</g>
<g style="fill:#000000; fill-opacity:1.0; 
stroke:#000000; stroke-width:39.3701; stroke-opacity:1; 
stroke-linecap:round; stroke-linejoin:round;">
</g>
<g style="fill:#000000; fill-opacity:1.0; 
stroke:#000000; stroke-width:0; stroke-opacity:1; 
stroke-linecap:round; stroke-linejoin:round;">
<circle cx="57574" cy="60900" r="68.8976" /> 
</g>
<g style="fill:#000000; fill-opacity:1.0; 
stroke:#000000; stroke-width:39.3701; stroke-opacity:1; 
stroke-linecap:round; stroke-linejoin:round;">
</g>
<g style="fill:#000000; fill-opacity:1.0; 
stroke:#000000; stroke-width:0; stroke-opacity:1; 
stroke-linecap:round; stroke-linejoin:round;">
<circle cx="46574" cy="54900" r="68.8976" /> 
</g>
<g style="fill:#000000; fill-opacity:1.0; 
stroke:#000000; stroke-width:39.3701; stroke-opacity:1; 
stroke-linecap:round; stroke-linejoin:round;">
</g>
<g style="fill:#000000; fill-opacity:1.0; 
stroke:#000000; stroke-width:0; stroke-opacity:1; 
stroke-linecap:round; stroke-linejoin:round;">
<circle cx="58574" cy="60900" r="68.8976" /> 
</g>
<g style="fill:#000000; fill-opacity:1.0; 
stroke:#000000; stroke-width:39.3701; stroke-opacity:1; 
stroke-linecap:round; stroke-linejoin:round;">
</g>
<g style="fill:#000000; fill-opacity:1.0; 
stroke:#000000; stroke-width:0; stroke-opacity:1; 
stroke-linecap:round; stroke-linejoin:round;">
<circle cx="45574" cy="54900" r="68.8976" /> 
</g>
<g style="fill:#000000; fill-opacity:1.0; 
stroke:#000000; stroke-width:39.3701; stroke-opacity:1; 
stroke-linecap:round; stroke-linejoin:round;">
</g>
<g style="fill:#000000; fill-opacity:1.0; 
stroke:#000000; stroke-width:0; stroke-opacity:1; 
stroke-linecap:round; stroke-linejoin:round;">
<circle cx="59574" cy="60900" r="68.8976" /> 
</g>
<g style="fill:#000000; fill-opacity:1.0; 
stroke:#000000; stroke-width:39.3701; stroke-opacity:1; 
stroke-linecap:round; stroke-linejoin:round;">
</g>
<g style="fill:#000000; fill-opacity:1.0; 
stroke:#000000; stroke-width:0; stroke-opacity:1; 
stroke-linecap:round; stroke-linejoin:round;">
<circle cx="59574" cy="54900" r="68.8976" /> 
</g>
<g style="fill:#000000; fill-opacity:1.0; 
stroke:#000000; stroke-width:39.3701; stroke-opacity:1; 
stroke-linecap:round; stroke-linejoin:round;">
</g>
<g style="fill:#000000; fill-opacity:1.0; 
stroke:#000000; stroke-width:0; stroke-opacity:1; 
stroke-linecap:round; stroke-linejoin:round;">
<circle cx="60433.1" cy="65078.7" r="68.8976" /> 
</g>
<g style="fill:#000000; fill-opacity:1.0; 
stroke:#000000; stroke-width:39.3701; stroke-opacity:1; 
stroke-linecap:round; stroke-linejoin:round;">
</g>
<g style="fill:#000000; fill-opacity:1.0; 
stroke:#000000; stroke-width:0; stroke-opacity:1; 
stroke-linecap:round; stroke-linejoin:round;">
<circle cx="59433.1" cy="65078.7" r="68.8976" /> 
</g>
<g style="fill:#000000; fill-opacity:1.0; 
stroke:#000000; stroke-width:39.3701; stroke-opacity:1; 
stroke-linecap:round; stroke-linejoin:round;">
</g>
<g style="fill:#000000; fill-opacity:1.0; 
stroke:#000000; stroke-width:0; stroke-opacity:1; 
stroke-linecap:round; stroke-linejoin:round;">
<circle cx="40216.5" cy="55763.8" r="68.8976" /> 
</g>
<g style="fill:#000000; fill-opacity:1.0; 
stroke:#000000; stroke-width:39.3701; stroke-opacity:1; 
stroke-linecap:round; stroke-linejoin:round;">
</g>
<g style="fill:#000000; fill-opacity:1.0; 
stroke:#000000; stroke-width:0; stroke-opacity:1; 
stroke-linecap:round; stroke-linejoin:round;">
<circle cx="40216.5" cy="54763.8" r="68.8976" /> 
</g>
<g style="fill:#000000; fill-opacity:1.0; 
stroke:#000000; stroke-width:39.3701; stroke-opacity:1; 
stroke-linecap:round; stroke-linejoin:round;">
</g>
<g style="fill:#000000; fill-opacity:1.0; 
stroke:#000000; stroke-width:0; stroke-opacity:1; 
stroke-linecap:round; stroke-linejoin:round;">
<circle cx="45374" cy="62600" r="68.8976" /> 
</g>
<g style="fill:#000000; fill-opacity:1.0; 
stroke:#000000; stroke-width:39.3701; stroke-opacity:1; 
stroke-linecap:round; stroke-linejoin:round;">
</g>
<g style="fill:#000000; fill-opacity:1.0; 
stroke:#000000; stroke-width:0; stroke-opacity:1; 
stroke-linecap:round; stroke-linejoin:round;">
<circle cx="46374" cy="62600" r="68.8976" /> 
</g>
<g style="fill:#000000; fill-opacity:1.0; 
stroke:#000000; stroke-width:39.3701; stroke-opacity:1; 
stroke-linecap:round; stroke-linejoin:round;">
</g>
<g style="fill:#000000; fill-opacity:1.0; 
stroke:#000000; stroke-width:0; stroke-opacity:1; 
stroke-linecap:round; stroke-linejoin:round;">
<circle cx="47974" cy="63200" r="68.8976" /> 
</g>
<g style="fill:#000000; fill-opacity:1.0; 
stroke:#000000; stroke-width:39.3701; stroke-opacity:1; 
stroke-linecap:round; stroke-linejoin:round;">
</g>
<g style="fill:#000000; fill-opacity:1.0; 
stroke:#000000; stroke-width:0; stroke-opacity:1; 
stroke-linecap:round; stroke-linejoin:round;">
<circle cx="50574" cy="51900" r="68.8976" /> 
</g>
<g style="fill:#000000; fill-opacity:1.0; 
stroke:#000000; stroke-width:39.3701; stroke-opacity:1; 
stroke-linecap:round; stroke-linejoin:round;">
</g>
<g style="fill:#000000; fill-opacity:1.0; 
stroke:#000000; stroke-width:0; stroke-opacity:1; 
stroke-linecap:round; stroke-linejoin:round;">
<circle cx="50574" cy="50900" r="68.8976" /> 
</g>
<g style="fill:#000000; fill-opacity:1.0; 
stroke:#000000; stroke-width:39.3701; stroke-opacity:1; 
stroke-linecap:round; stroke-linejoin:round;">
</g>
<g style="fill:#000000; fill-opacity:1.0; 
stroke:#000000; stroke-width:0; stroke-opacity:1; 
stroke-linecap:round; stroke-linejoin:round;">
<circle cx="51574" cy="51900" r="68.8976" /> 
</g>
<g style="fill:#000000; fill-opacity:1.0; 
stroke:#000000; stroke-width:39.3701; stroke-opacity:1; 
stroke-linecap:round; stroke-linejoin:round;">
</g>
<g style="fill:#000000; fill-opacity:1.0; 
stroke:#000000; stroke-width:0; stroke-opacity:1; 
stroke-linecap:round; stroke-linejoin:round;">
<circle cx="51574" cy="50900" r="68.8976" /> 
</g>
<g style="fill:#000000; fill-opacity:1.0; 
stroke:#000000; stroke-width:39.3701; stroke-opacity:1; 
stroke-linecap:round; stroke-linejoin:round;">
</g>
<g style="fill:#000000; fill-opacity:1.0; 
stroke:#000000; stroke-width:0; stroke-opacity:1; 
stroke-linecap:round; stroke-linejoin:round;">
<circle cx="52574" cy="51900" r="68.8976" /> 
</g>
<g style="fill:#000000; fill-opacity:1.0; 
stroke:#000000; stroke-width:39.3701; stroke-opacity:1; 
stroke-linecap:round; stroke-linejoin:round;">
</g>
<g style="fill:#000000; fill-opacity:1.0; 
stroke:#000000; stroke-width:0; stroke-opacity:1; 
stroke-linecap:round; stroke-linejoin:round;">
<circle cx="52574" cy="50900" r="68.8976" /> 
</g>
<g style="fill:#000000; fill-opacity:1.0; 
stroke:#000000; stroke-width:39.3701; stroke-opacity:1; 
stroke-linecap:round; stroke-linejoin:round;">
</g>
<g style="fill:#000000; fill-opacity:1.0; 
stroke:#000000; stroke-width:0; stroke-opacity:1; 
stroke-linecap:round; stroke-linejoin:round;">
<circle cx="53574" cy="51900" r="68.8976" /> 
</g>
<g style="fill:#000000; fill-opacity:1.0; 
stroke:#000000; stroke-width:39.3701; stroke-opacity:1; 
stroke-linecap:round; stroke-linejoin:round;">
</g>
<g style="fill:#000000; fill-opacity:1.0; 
stroke:#000000; stroke-width:0; stroke-opacity:1; 
stroke-linecap:round; stroke-linejoin:round;">
<circle cx="53574" cy="50900" r="68.8976" /> 
</g>
<g style="fill:#000000; fill-opacity:1.0; 
stroke:#000000; stroke-width:39.3701; stroke-opacity:1; 
stroke-linecap:round; stroke-linejoin:round;">
</g>
<g style="fill:#000000; fill-opacity:1.0; 
stroke:#000000; stroke-width:0; stroke-opacity:1; 
stroke-linecap:round; stroke-linejoin:round;">
<circle cx="54574" cy="51900" r="68.8976" /> 
</g>
<g style="fill:#000000; fill-opacity:1.0; 
stroke:#000000; stroke-width:39.3701; stroke-opacity:1; 
stroke-linecap:round; stroke-linejoin:round;">
</g>
<g style="fill:#000000; fill-opacity:1.0; 
stroke:#000000; stroke-width:0; stroke-opacity:1; 
stroke-linecap:round; stroke-linejoin:round;">
<circle cx="54574" cy="50900" r="68.8976" /> 
</g>
<g style="fill:#000000; fill-opacity:1.0; 
stroke:#000000; stroke-width:39.3701; stroke-opacity:1; 
stroke-linecap:round; stroke-linejoin:round;">
</g>
<g style="fill:#000000; fill-opacity:1.0; 
stroke:#000000; stroke-width:0; stroke-opacity:1; 
stroke-linecap:round; stroke-linejoin:round;">
<circle cx="55574" cy="51900" r="68.8976" /> 
</g>
<g style="fill:#000000; fill-opacity:1.0; 
stroke:#000000; stroke-width:39.3701; stroke-opacity:1; 
stroke-linecap:round; stroke-linejoin:round;">
</g>
<g style="fill:#000000; fill-opacity:1.0; 
stroke:#000000; stroke-width:0; stroke-opacity:1; 
stroke-linecap:round; stroke-linejoin:round;">
<circle cx="55574" cy="50900" r="68.8976" /> 
</g>
<g style="fill:#000000; fill-opacity:1.0; 
stroke:#000000; stroke-width:39.3701; stroke-opacity:1; 
stroke-linecap:round; stroke-linejoin:round;">
</g>
<g style="fill:#000000; fill-opacity:1.0; 
stroke:#000000; stroke-width:0; stroke-opacity:1; 
stroke-linecap:round; stroke-linejoin:round;">
<circle cx="56574" cy="51900" r="68.8976" /> 
</g>
<g style="fill:#000000; fill-opacity:1.0; 
stroke:#000000; stroke-width:39.3701; stroke-opacity:1; 
stroke-linecap:round; stroke-linejoin:round;">
</g>
<g style="fill:#000000; fill-opacity:1.0; 
stroke:#000000; stroke-width:0; stroke-opacity:1; 
stroke-linecap:round; stroke-linejoin:round;">
<circle cx="56574" cy="50900" r="68.8976" /> 
</g>
<g style="fill:#000000; fill-opacity:1.0; 
stroke:#000000; stroke-width:39.3701; stroke-opacity:1; 
stroke-linecap:round; stroke-linejoin:round;">
</g>
<g style="fill:#000000; fill-opacity:1.0; 
stroke:#000000; stroke-width:0; stroke-opacity:1; 
stroke-linecap:round; stroke-linejoin:round;">
<circle cx="57574" cy="51900" r="68.8976" /> 
</g>
<g style="fill:#000000; fill-opacity:1.0; 
stroke:#000000; stroke-width:39.3701; stroke-opacity:1; 
stroke-linecap:round; stroke-linejoin:round;">
</g>
<g style="fill:#000000; fill-opacity:1.0; 
stroke:#000000; stroke-width:0; stroke-opacity:1; 
stroke-linecap:round; stroke-linejoin:round;">
<circle cx="57574" cy="50900" r="68.8976" /> 
</g>
<g style="fill:#000000; fill-opacity:1.0; 
stroke:#000000; stroke-width:39.3701; stroke-opacity:1; 
stroke-linecap:round; stroke-linejoin:round;">
</g>
<g style="fill:#000000; fill-opacity:1.0; 
stroke:#000000; stroke-width:0; stroke-opacity:1; 
stroke-linecap:round; stroke-linejoin:round;">
<circle cx="38070.9" cy="61240.2" r="68.8976" /> 
</g>
<g style="fill:#000000; fill-opacity:1.0; 
stroke:#000000; stroke-width:39.3701; stroke-opacity:1; 
stroke-linecap:round; stroke-linejoin:round;">
</g>
<g style="fill:#000000; fill-opacity:1.0; 
stroke:#000000; stroke-width:0; stroke-opacity:1; 
stroke-linecap:round; stroke-linejoin:round;">
<circle cx="38149.6" cy="63484.3" r="68.8976" /> 
</g>
<g style="fill:#000000; fill-opacity:1.0; 
stroke:#000000; stroke-width:39.3701; stroke-opacity:1; 
stroke-linecap:round; stroke-linejoin:round;">
</g>
<g style="fill:#000000; fill-opacity:1.0; 
stroke:#000000; stroke-width:0; stroke-opacity:1; 
stroke-linecap:round; stroke-linejoin:round;">
<circle cx="37893.7" cy="58818.9" r="68.8976" /> 
</g>
<g style="fill:#000000; fill-opacity:1.0; 
stroke:#000000; stroke-width:39.3701; stroke-opacity:1; 
stroke-linecap:round; stroke-linejoin:round;">
</g>
<g style="fill:#000000; fill-opacity:1.0; 
stroke:#000000; stroke-width:0; stroke-opacity:1; 
stroke-linecap:round; stroke-linejoin:round;">
<circle cx="37893.7" cy="56102.4" r="68.8976" /> 
</g>
<g style="fill:#000000; fill-opacity:1.0; 
stroke:#000000; stroke-width:39.3701; stroke-opacity:1; 
stroke-linecap:round; stroke-linejoin:round;">
</g>
<g style="fill:#000000; fill-opacity:1.0; 
stroke:#000000; stroke-width:0; stroke-opacity:1; 
stroke-linecap:round; stroke-linejoin:round;">
<circle cx="37890.2" cy="57443.7" r="68.8976" /> 
</g>
<g style="fill:#000000; fill-opacity:1.0; 
stroke:#000000; stroke-width:39.3701; stroke-opacity:1; 
stroke-linecap:round; stroke-linejoin:round;">
</g>
<g style="fill:#000000; fill-opacity:1.0; 
stroke:#000000; stroke-width:0; stroke-opacity:1; 
stroke-linecap:round; stroke-linejoin:round;">
<circle cx="37854.3" cy="54173.2" r="68.8976" /> 
</g>
<g style="fill:#000000; fill-opacity:1.0; 
stroke:#000000; stroke-width:39.3701; stroke-opacity:1; 
stroke-linecap:round; stroke-linejoin:round;">
</g>
<g style="fill:#000000; fill-opacity:1.0; 
stroke:#000000; stroke-width:0; stroke-opacity:1; 
stroke-linecap:round; stroke-linejoin:round;">
<circle cx="37893.7" cy="52854.3" r="68.8976" /> 
</g>
<g style="fill:#000000; fill-opacity:1.0; 
stroke:#000000; stroke-width:39.3701; stroke-opacity:1; 
stroke-linecap:round; stroke-linejoin:round;">
</g>
<g style="fill:#000000; fill-opacity:1.0; 
stroke:#000000; stroke-width:0; stroke-opacity:1; 
stroke-linecap:round; stroke-linejoin:round;">
<circle cx="37893.7" cy="51574.8" r="68.8976" /> 
</g>
<g style="fill:#000000; fill-opacity:1.0; 
stroke:#000000; stroke-width:39.3701; stroke-opacity:1; 
stroke-linecap:round; stroke-linejoin:round;">
</g>
<g style="fill:#000000; fill-opacity:1.0; 
stroke:#000000; stroke-width:0; stroke-opacity:1; 
stroke-linecap:round; stroke-linejoin:round;">
<circle cx="56830.7" cy="65118.1" r="68.8976" /> 
</g>
<g style="fill:#000000; fill-opacity:1.0; 
stroke:#000000; stroke-width:39.3701; stroke-opacity:1; 
stroke-linecap:round; stroke-linejoin:round;">
</g>
<g style="fill:#000000; fill-opacity:1.0; 
stroke:#000000; stroke-width:0; stroke-opacity:1; 
stroke-linecap:round; stroke-linejoin:round;">
<circle cx="62464.6" cy="62401.6" r="68.8976" /> 
</g>
<g style="fill:#000000; fill-opacity:1.0; 
stroke:#000000; stroke-width:39.3701; stroke-opacity:1; 
stroke-linecap:round; stroke-linejoin:round;">
</g>
<g style="fill:#000000; fill-opacity:1.0; 
stroke:#000000; stroke-width:0; stroke-opacity:1; 
stroke-linecap:round; stroke-linejoin:round;">
<circle cx="58464.6" cy="62401.6" r="68.8976" /> 
</g>
<g style="fill:#000000; fill-opacity:1.0; 
stroke:#000000; stroke-width:39.3701; stroke-opacity:1; 
stroke-linecap:round; stroke-linejoin:round;">
</g>
<g style="fill:#000000; fill-opacity:1.0; 
stroke:#000000; stroke-width:0; stroke-opacity:1; 
stroke-linecap:round; stroke-linejoin:round;">
<circle cx="43661.4" cy="52677.2" r="68.8976" /> 
</g>
<g style="fill:#000000; fill-opacity:1.0; 
stroke:#000000; stroke-width:39.3701; stroke-opacity:1; 
stroke-linecap:round; stroke-linejoin:round;">
</g>
<g style="fill:#000000; fill-opacity:1.0; 
stroke:#000000; stroke-width:0; stroke-opacity:1; 
stroke-linecap:round; stroke-linejoin:round;">
<circle cx="46489.8" cy="49848.7" r="68.8976" /> 
</g>
<g style="fill:#000000; fill-opacity:1.0; 
stroke:#000000; stroke-width:39.3701; stroke-opacity:1; 
stroke-linecap:round; stroke-linejoin:round;">
</g>
<g style="fill:#000000; fill-opacity:1.0; 
stroke:#000000; stroke-width:0; stroke-opacity:1; 
stroke-linecap:round; stroke-linejoin:round;">
<circle cx="41255.9" cy="65846.5" r="68.8976" /> 
</g>
<g style="fill:#000000; fill-opacity:1.0; 
stroke:#000000; stroke-width:39.3701; stroke-opacity:1; 
stroke-linecap:round; stroke-linejoin:round;">
</g>
<g style="fill:#000000; fill-opacity:1.0; 
stroke:#000000; stroke-width:0; stroke-opacity:1; 
stroke-linecap:round; stroke-linejoin:round;">
<circle cx="45255.9" cy="65846.5" r="68.8976" /> 
</g>
<g style="fill:#000000; fill-opacity:1.0; 
stroke:#000000; stroke-width:39.3701; stroke-opacity:1; 
stroke-linecap:round; stroke-linejoin:round;">
</g>
<g style="fill:#000000; fill-opacity:1.0; 
stroke:#000000; stroke-width:0; stroke-opacity:1; 
stroke-linecap:round; stroke-linejoin:round;">
<circle cx="42440.9" cy="64586.6" r="68.8976" /> 
</g>
<g style="fill:#000000; fill-opacity:1.0; 
stroke:#000000; stroke-width:39.3701; stroke-opacity:1; 
stroke-linecap:round; stroke-linejoin:round;">
</g>
<g style="fill:#000000; fill-opacity:1.0; 
stroke:#000000; stroke-width:0; stroke-opacity:1; 
stroke-linecap:round; stroke-linejoin:round;">
<circle cx="40669.3" cy="64586.6" r="68.8976" /> 
</g>
<g style="fill:#000000; fill-opacity:1.0; 
stroke:#000000; stroke-width:39.3701; stroke-opacity:1; 
stroke-linecap:round; stroke-linejoin:round;">
</g>
<g style="fill:#000000; fill-opacity:1.0; 
stroke:#000000; stroke-width:0; stroke-opacity:1; 
stroke-linecap:round; stroke-linejoin:round;">
<circle cx="42440.9" cy="62027.6" r="68.8976" /> 
</g>
<g style="fill:#000000; fill-opacity:1.0; 
stroke:#000000; stroke-width:39.3701; stroke-opacity:1; 
stroke-linecap:round; stroke-linejoin:round;">
</g>
<g style="fill:#000000; fill-opacity:1.0; 
stroke:#000000; stroke-width:0; stroke-opacity:1; 
stroke-linecap:round; stroke-linejoin:round;">
<circle cx="40669.3" cy="62027.6" r="68.8976" /> 
</g>
<g style="fill:#000000; fill-opacity:1.0; 
stroke:#000000; stroke-width:39.3701; stroke-opacity:1; 
stroke-linecap:round; stroke-linejoin:round;">
</g>
<g style="fill:#000000; fill-opacity:1.0; 
stroke:#000000; stroke-width:0; stroke-opacity:1; 
stroke-linecap:round; stroke-linejoin:round;">
<circle cx="38267.7" cy="65944.9" r="68.8976" /> 
</g>
<g style="fill:#000000; fill-opacity:1.0; 
stroke:#000000; stroke-width:39.3701; stroke-opacity:1; 
stroke-linecap:round; stroke-linejoin:round;">
</g>
<g style="fill:#000000; fill-opacity:1.0; 
stroke:#000000; stroke-width:0; stroke-opacity:1; 
stroke-linecap:round; stroke-linejoin:round;">
<circle cx="40826.8" cy="50118.1" r="68.8976" /> 
</g>
<g style="fill:#000000; fill-opacity:1.0; 
stroke:#000000; stroke-width:39.3701; stroke-opacity:1; 
stroke-linecap:round; stroke-linejoin:round;">
</g>
<g style="fill:#000000; fill-opacity:1.0; 
stroke:#000000; stroke-width:0; stroke-opacity:1; 
stroke-linecap:round; stroke-linejoin:round;">
<circle cx="43543.3" cy="50118.1" r="68.8976" /> 
</g>
<g style="fill:#000000; fill-opacity:1.0; 
stroke:#000000; stroke-width:39.3701; stroke-opacity:1; 
stroke-linecap:round; stroke-linejoin:round;">
</g>
<g style="fill:#000000; fill-opacity:1.0; 
stroke:#000000; stroke-width:0; stroke-opacity:1; 
stroke-linecap:round; stroke-linejoin:round;">
<circle cx="34065.8" cy="29288.7" r="68.8976" /> 
</g>
<g style="fill:#000000; fill-opacity:1.0; 
stroke:#000000; stroke-width:39.3701; stroke-opacity:1; 
stroke-linecap:round; stroke-linejoin:round;">
</g>
<g style="fill:#000000; fill-opacity:1.0; 
stroke:#000000; stroke-width:0; stroke-opacity:1; 
stroke-linecap:round; stroke-linejoin:round;">
<circle cx="25168.2" cy="29288.7" r="68.8976" /> 
</g>
<g style="fill:#000000; fill-opacity:1.0; 
stroke:#000000; stroke-width:39.3701; stroke-opacity:1; 
stroke-linecap:round; stroke-linejoin:round;">
</g>
<g style="fill:#000000; fill-opacity:1.0; 
stroke:#000000; stroke-width:0; stroke-opacity:1; 
stroke-linecap:round; stroke-linejoin:round;">
<circle cx="25168.2" cy="33599.7" r="68.8976" /> 
</g>
<g style="fill:#000000; fill-opacity:1.0; 
stroke:#000000; stroke-width:39.3701; stroke-opacity:1; 
stroke-linecap:round; stroke-linejoin:round;">
</g>
<g style="fill:#000000; fill-opacity:1.0; 
stroke:#000000; stroke-width:0; stroke-opacity:1; 
stroke-linecap:round; stroke-linejoin:round;">
<circle cx="34065.8" cy="33599.7" r="68.8976" /> 
</g>
<g style="fill:#000000; fill-opacity:1.0; 
stroke:#000000; stroke-width:39.3701; stroke-opacity:1; 
stroke-linecap:round; stroke-linejoin:round;">
</g>
<g style="fill:#000000; fill-opacity:1.0; 
stroke:#000000; stroke-width:0; stroke-opacity:1; 
stroke-linecap:round; stroke-linejoin:round;">
<circle cx="36191.8" cy="28324.1" r="68.8976" /> 
</g>
<g style="fill:#000000; fill-opacity:1.0; 
stroke:#000000; stroke-width:39.3701; stroke-opacity:1; 
stroke-linecap:round; stroke-linejoin:round;">
</g>
<g style="fill:#000000; fill-opacity:1.0; 
stroke:#000000; stroke-width:0; stroke-opacity:1; 
stroke-linecap:round; stroke-linejoin:round;">
<circle cx="36191.8" cy="30706" r="68.8976" /> 
</g>
<g style="fill:#000000; fill-opacity:1.0; 
stroke:#000000; stroke-width:39.3701; stroke-opacity:1; 
stroke-linecap:round; stroke-linejoin:round;">
</g>
<g style="fill:#000000; fill-opacity:1.0; 
stroke:#000000; stroke-width:0; stroke-opacity:1; 
stroke-linecap:round; stroke-linejoin:round;">
<circle cx="38573.7" cy="28324.1" r="68.8976" /> 
</g>
<g style="fill:#000000; fill-opacity:1.0; 
stroke:#000000; stroke-width:39.3701; stroke-opacity:1; 
stroke-linecap:round; stroke-linejoin:round;">
</g>
<g style="fill:#000000; fill-opacity:1.0; 
stroke:#000000; stroke-width:0; stroke-opacity:1; 
stroke-linecap:round; stroke-linejoin:round;">
<circle cx="36191.8" cy="33087.9" r="68.8976" /> 
</g>
<g style="fill:#000000; fill-opacity:1.0; 
stroke:#000000; stroke-width:39.3701; stroke-opacity:1; 
stroke-linecap:round; stroke-linejoin:round;">
</g>
<g style="fill:#000000; fill-opacity:1.0; 
stroke:#000000; stroke-width:0; stroke-opacity:1; 
stroke-linecap:round; stroke-linejoin:round;">
<circle cx="62795.3" cy="50334.6" r="68.8976" /> 
</g>
<g style="fill:#000000; fill-opacity:1.0; 
stroke:#000000; stroke-width:39.3701; stroke-opacity:1; 
stroke-linecap:round; stroke-linejoin:round;">
</g>
<g style="fill:#000000; fill-opacity:1.0; 
stroke:#000000; stroke-width:0; stroke-opacity:1; 
stroke-linecap:round; stroke-linejoin:round;">
<circle cx="62815" cy="65295.3" r="68.8976" /> 
</g>
<g style="fill:#000000; fill-opacity:1.0; 
stroke:#000000; stroke-width:39.3701; stroke-opacity:1; 
stroke-linecap:round; stroke-linejoin:round;">
</g>
<g style="fill:#000000; fill-opacity:1.0; 
stroke:#000000; stroke-width:0; stroke-opacity:1; 
stroke-linecap:round; stroke-linejoin:round;">
<circle cx="15748" cy="59252" r="68.8976" /> 
</g>
<g style="fill:#000000; fill-opacity:1.0; 
stroke:#000000; stroke-width:39.3701; stroke-opacity:1; 
stroke-linecap:round; stroke-linejoin:round;">
</g>
<g style="fill:#000000; fill-opacity:1.0; 
stroke:#000000; stroke-width:0; stroke-opacity:1; 
stroke-linecap:round; stroke-linejoin:round;">
<circle cx="15748" cy="58252" r="68.8976" /> 
</g>
<g style="fill:#000000; fill-opacity:1.0; 
stroke:#000000; stroke-width:39.3701; stroke-opacity:1; 
stroke-linecap:round; stroke-linejoin:round;">
</g>
<g style="fill:#000000; fill-opacity:1.0; 
stroke:#000000; stroke-width:0; stroke-opacity:1; 
stroke-linecap:round; stroke-linejoin:round;">
<circle cx="15748" cy="57252" r="68.8976" /> 
</g>
<g style="fill:#000000; fill-opacity:1.0; 
stroke:#000000; stroke-width:39.3701; stroke-opacity:1; 
stroke-linecap:round; stroke-linejoin:round;">
</g>
<g style="fill:#000000; fill-opacity:1.0; 
stroke:#000000; stroke-width:0; stroke-opacity:1; 
stroke-linecap:round; stroke-linejoin:round;">
<circle cx="64566.9" cy="54952.8" r="68.8976" /> 
</g>
<g style="fill:#000000; fill-opacity:1.0; 
stroke:#000000; stroke-width:39.3701; stroke-opacity:1; 
stroke-linecap:round; stroke-linejoin:round;">
</g>
<g style="fill:#000000; fill-opacity:1.0; 
stroke:#000000; stroke-width:0; stroke-opacity:1; 
stroke-linecap:round; stroke-linejoin:round;">
<circle cx="64566.9" cy="53952.8" r="68.8976" /> 
</g>
<g style="fill:#000000; fill-opacity:1.0; 
stroke:#000000; stroke-width:39.3701; stroke-opacity:1; 
stroke-linecap:round; stroke-linejoin:round;">
</g>
<g style="fill:#000000; fill-opacity:1.0; 
stroke:#000000; stroke-width:0; stroke-opacity:1; 
stroke-linecap:round; stroke-linejoin:round;">
<circle cx="64566.9" cy="52952.8" r="68.8976" /> 
</g>
<g style="fill:#000000; fill-opacity:1.0; 
stroke:#000000; stroke-width:39.3701; stroke-opacity:1; 
stroke-linecap:round; stroke-linejoin:round;">
</g>
<g style="fill:#FFFFFF; fill-opacity:1.0; 
stroke:#FFFFFF; stroke-width:39.3701; stroke-opacity:1; 
stroke-linecap:round; stroke-linejoin:round;">
</g> 
</svg>
