<?xml version="1.0" standalone="no"?>
 <!DOCTYPE svg PUBLIC "-//W3C//DTD SVG 1.1//EN" 
 "http://www.w3.org/Graphics/SVG/1.1/DTD/svg11.dtd"> 
<svg xmlns="http://www.w3.org/2000/svg" version="1.1" 
    width="29.7002cm" height="21.0007cm" viewBox="0 0 116930 82680 ">
<title>SVG Picture created as Placa_sensores_v1_2 - Conector QTR-B_Cu.svg date 2019/08/29 15:38:52 </title>
  <desc>Picture generated by PCBNEW </desc>
<g style="fill:#000000; fill-opacity:1;stroke:#000000; stroke-opacity:1;
stroke-linecap:round; stroke-linejoin:round; "
 transform="translate(0 0) scale(1 1)">
</g>
<g style="fill:#000000; fill-opacity:0.0; 
stroke:#000000; stroke-width:-0.000393701; stroke-opacity:1; 
stroke-linecap:round; stroke-linejoin:round;">
<g >
</g>
<g style="fill:#000000; fill-opacity:0.0; 
stroke:#000000; stroke-width:748.031; stroke-opacity:1; 
stroke-linecap:round; stroke-linejoin:round;">
<path d="M15472 22047
L15236 22047
" />
<path d="M14078 22047
L13842 22047
" />
<path d="M15472 21047
L15236 21047
" />
<path d="M14078 21047
L13842 21047
" />
<path d="M15472 20047
L15236 20047
" />
<path d="M14078 20047
L13842 20047
" />
<path d="M15472 19047
L15236 19047
" />
<path d="M14078 19047
L13842 19047
" />
<path d="M15472 18047
L15236 18047
" />
<path d="M14078 18047
L13842 18047
" />
<path d="M15472 17047
L15236 17047
" />
<path d="M14078 17047
L13842 17047
" />
<path d="M15472 16047
L15236 16047
" />
<path d="M14078 16047
L13842 16047
" />
<path d="M15472 15047
L15236 15047
" />
<path d="M14078 15047
L13842 15047
" />
</g>
<g >
</g>
<g style="fill:#000000; fill-opacity:0.0; 
stroke:#000000; stroke-width:669.291; stroke-opacity:1; 
stroke-linecap:round; stroke-linejoin:round;">
<path d="M18937 14960
L19251 14960
" />
</g>
<g >
<path d="M24842 22047
L25157 22047
" />
</g>
<g >
<path d="M24842 21062
L25157 21062
" />
</g>
<g >
<path d="M24842 20078
L25157 20078
" />
</g>
<g >
<path d="M24842 19094
L25157 19094
" />
</g>
<g >
<path d="M24842 18110
L25157 18110
" />
</g>
<g >
<path d="M24842 17125
L25157 17125
" />
</g>
<g >
<path d="M24842 16141
L25157 16141
" />
</g>
<g >
<path d="M24842 15157
L25157 15157
" />
</g>
<g >
</g>
<g style="fill:#000000; fill-opacity:1.0; 
stroke:#000000; stroke-width:0; stroke-opacity:1; 
stroke-linecap:round; stroke-linejoin:round;">
<circle cx="17126" cy="21063" r="492.126" /> 
</g>
<g style="fill:#000000; fill-opacity:1.0; 
stroke:#000000; stroke-width:39.3701; stroke-opacity:1; 
stroke-linecap:round; stroke-linejoin:round;">
</g>
<g >
</g>
<g style="fill:#000000; fill-opacity:1.0; 
stroke:#000000; stroke-width:669.291; stroke-opacity:1; 
stroke-linecap:round; stroke-linejoin:round;">
</g>
<g style="fill:#000000; fill-opacity:0.0; 
stroke:#000000; stroke-width:669.291; stroke-opacity:1; 
stroke-linecap:round; stroke-linejoin:round;">
<path d="M16968 19685
L17283 19685
" />
</g>
<g >
<path d="M18937 24606
L19251 24606
" />
</g>
<g >
</g>
<g >
</g>
<g style="fill:#000000; fill-opacity:0.0; 
stroke:#000000; stroke-width:236.22; stroke-opacity:1; 
stroke-linecap:round; stroke-linejoin:round;">
<path d="M15157 22623
L15157 22047
" />
<path d="M14887 22893
L15157 22623
" />
<path d="M13491 22893
L14887 22893
" />
<path d="M24015 15157
L24015 12502
" />
<path d="M25000 15157
L24015 15157
" />
<path d="M24015 12502
L20989 9476
" />
<path d="M20989 9476
L12370 9476
" />
<path d="M12370 9476
L8862 12984
" />
<path d="M8862 18263
L13491 22893
" />
<path d="M8862 12984
L8862 18263
" />
<path d="M25000 16141
L23622 16141
" />
<path d="M23622 16141
L23425 15944
" />
<path d="M13503 22047
L14157 22047
" />
<path d="M9452 17996
L13503 22047
" />
<path d="M9452 13228
L9452 17996
" />
<path d="M12614 10066
L9452 13228
" />
<path d="M20744 10066
L12614 10066
" />
<path d="M23425 12747
L20744 10066
" />
<path d="M23425 15944
L23425 12747
" />
<path d="M15173 21062
L15157 21047
" />
<path d="M17125 21062
L15173 21062
" />
<path d="M14157 21047
L13645 21047
" />
<path d="M13645 21047
L13629 21062
" />
<path d="M13338 21047
L14157 21047
" />
<path d="M10043 13473
L10043 17752
" />
<path d="M12859 10657
L10043 13473
" />
<path d="M22821 12992
L20486 10657
" />
<path d="M22834 12992
L22821 12992
" />
<path d="M22834 16732
L22834 12992
" />
<path d="M10043 17752
L13338 21047
" />
<path d="M23228 17125
L22834 16732
" />
<path d="M20486 10657
L12859 10657
" />
<path d="M25000 17125
L23228 17125
" />
<path d="M13338 20047
L14157 20047
" />
<path d="M10633 17342
L13338 20047
" />
<path d="M10633 13718
L10633 17342
" />
<path d="M13103 11248
L10633 13718
" />
<path d="M22263 13269
L20242 11248
" />
<path d="M22263 17716
L22263 13269
" />
<path d="M22657 18110
L22263 17716
" />
<path d="M20242 11248
L13103 11248
" />
<path d="M25000 18110
L24429 18110
" />
<path d="M22657 18110
L24429 18110
" />
<path d="M13645 19047
L14157 19047
" />
<path d="M11224 13962
L11224 16626
" />
<path d="M22657 19094
L21673 18110
" />
<path d="M11224 16626
L13645 19047
" />
<path d="M25000 19094
L22657 19094
" />
<path d="M21673 13514
L19997 11838
" />
<path d="M21673 18110
L21673 13514
" />
<path d="M19997 11838
L13348 11838
" />
<path d="M13348 11838
L11224 13962
" />
<path d="M11814 16216
L13645 18047
" />
<path d="M11814 14207
L11814 16216
" />
<path d="M13593 12429
L11814 14207
" />
<path d="M21082 13758
L19753 12429
" />
<path d="M21082 18503
L21082 13758
" />
<path d="M13645 18047
L14157 18047
" />
<path d="M19753 12429
L13593 12429
" />
<path d="M22657 20078
L21082 18503
" />
<path d="M22657 20078
L24606 20078
" />
<path d="M25000 20078
L24606 20078
" />
<path d="M24606 20078
L24429 20078
" />
<path d="M12405 15807
L13491 16893
" />
<path d="M12405 14452
L12405 15807
" />
<path d="M22657 21062
L20492 18897
" />
<path d="M20492 18897
L20492 14003
" />
<path d="M20492 14003
L19508 13019
" />
<path d="M14003 16893
L14157 17047
" />
<path d="M19508 13019
L13837 13019
" />
<path d="M13491 16893
L14003 16893
" />
<path d="M13837 13019
L12405 14452
" />
<path d="M24606 21062
L22657 21062
" />
<path d="M24606 21062
L24429 21062
" />
<path d="M25000 21062
L24606 21062
" />
<path d="M15669 16047
L15157 16047
" />
<path d="M16535 16913
L15669 16047
" />
<path d="M17125 19685
L16535 19094
" />
<path d="M16535 19094
L16535 16913
" />
<path d="M13645 16047
L14157 16047
" />
<path d="M12996 14696
L12996 15397
" />
<path d="M22657 22047
L19901 19291
" />
<path d="M25000 22047
L22657 22047
" />
<path d="M12996 15397
L13645 16047
" />
<path d="M19901 19291
L19901 14248
" />
<path d="M19901 14248
L19263 13610
" />
<path d="M19263 13610
L14082 13610
" />
<path d="M14082 13610
L12996 14696
" />
<path d="M15669 15047
L15157 15047
" />
<path d="M17125 18503
L17125 16503
" />
<path d="M17499 18877
L17125 18503
" />
<path d="M19094 21850
L18503 21259
" />
<path d="M19094 24606
L19094 21850
" />
<path d="M17125 16503
L15669 15047
" />
<path d="M18503 21259
L18503 19881
" />
<path d="M18503 19881
L18090 19468
" />
<path d="M17617 18877
L17499 18877
" />
<path d="M18090 19468
L18090 19350
" />
<path d="M18090 19350
L17617 18877
" />
<path d="M14157 14748
L14157 15047
" />
<path d="M13976 14566
L14157 14748
" />
<path d="M14370 14173
L13976 14566
" />
<path d="M17322 14173
L14370 14173
" />
<path d="M19094 14960
L18110 14960
" />
<path d="M18110 14960
L17322 14173
" />
</g>
<g >
</g>
<g style="fill:#000000; fill-opacity:1.0; 
stroke:#000000; stroke-width:236.22; stroke-opacity:1; 
stroke-linecap:round; stroke-linejoin:round;">
<path style="fill:#000000; fill-opacity:1.0; 
stroke:#000000; stroke-width:236.22; stroke-opacity:1; 
stroke-linecap:round; stroke-linejoin:round;fill-rule:evenodd;"
d="M 26850,28818
7992,28818
7992,12984
8268,12984
8271,13013
8271,18234
8268,18263
8280,18379
8310,18480
8313,18491
8368,18593
8442,18683
8465,18702
13053,23290
13072,23313
13162,23387
13264,23441
13342,23465
13376,23475
13491,23487
13520,23484
14858,23484
14887,23487
14916,23484
15003,23475
15114,23441
15216,23387
15306,23313
15325,23290
15554,23061
15577,23043
15650,22953
15699,22863
15797,22833
15944,22754
16073,22648
16179,22519
16258,22372
16306,22213
16322,22047
16306,21881
16258,21721
16212,21636
16580,21636
16618,21794
16771,21879
16937,21932
17110,21952
17284,21938
17452,21891
17607,21811
17633,21794
17671,21636
17125,21090
16580,21636
16212,21636
16179,21574
16103,21481
16121,21457
16189,21322
16227,21186
16141,21066
16237,21066
16250,21221
16297,21389
16377,21544
16394,21570
16552,21608
17098,21062
16552,20517
16394,20555
16309,20708
16256,20874
16238,21027
16141,21027
16227,20907
16189,20771
16121,20637
16103,20613
16179,20519
16258,20372
16306,20213
16312,20157
16395,20258
16517,20359
16601,20403
16580,20489
17125,21035
17671,20489
17650,20403
17734,20359
17856,20258
17913,20189
17913,20657
17874,20581
17857,20555
17699,20517
17153,21062
17699,21608
17857,21570
17937,21426
17955,21486
18010,21589
18084,21679
18106,21697
18503,22095
18503,23922
18486,23931
18363,24032
18262,24155
18187,24295
18141,24448
18126,24606
18141,24764
18187,24916
18262,25056
18363,25179
18486,25280
18626,25355
18778,25401
18897,25413
19291,25413
19410,25401
19562,25355
19702,25280
19825,25179
19926,25056
20001,24916
20047,24764
20062,24606
20047,24448
20001,24295
19926,24155
19825,24032
19702,23931
19685,23922
19685,21879
19687,21850
19685,21821
19676,21734
19642,21623
19587,21520
19514,21430
19491,21412
19094,21015
19094,19910
19097,19881
19085,19766
19069,19710
19052,19654
18997,19552
18923,19462
18901,19443
18664,19206
18638,19123
18583,19021
18510,18931
18487,18912
18055,18480
18037,18458
17947,18384
17844,18329
17761,18304
17716,18259
17716,16532
17719,16503
17707,16387
17702,16368
17674,16276
17619,16174
17545,16084
17523,16065
16292,14835
16270,14763
17078,14763
17672,15357
17690,15380
17780,15454
17883,15508
17960,15532
17994,15542
18110,15554
18139,15551
18384,15551
18486,15634
18626,15709
18778,15756
18897,15767
19291,15767
19311,15765
19311,19262
19308,19291
19316,19372
19319,19407
19353,19518
19408,19621
19481,19710
19504,19729
22219,22444
22237,22466
22260,22485
22327,22540
22430,22595
22541,22629
22657,22640
22686,22637
24289,22637
24391,22721
24532,22796
24684,22842
24802,22854
25197,22854
25315,22842
25467,22796
25608,22721
25730,22620
25831,22497
25906,22357
25952,22205
25968,22047
25952,21889
25906,21736
25831,21596
25797,21555
25831,21513
25906,21373
25952,21221
25968,21062
25952,20904
25906,20752
25831,20612
25797,20570
25831,20529
25906,20389
25952,20236
25968,20078
25952,19920
25906,19768
25831,19628
25797,19586
25831,19545
25906,19404
25952,19252
25968,19094
25952,18936
25906,18784
25831,18643
25797,18602
25831,18560
25906,18420
25952,18268
25968,18110
25952,17952
25906,17799
25831,17659
25797,17618
25831,17576
25906,17436
25952,17284
25968,17125
25952,16967
25906,16815
25831,16675
25797,16633
25831,16592
25906,16452
25952,16299
25968,16141
25952,15983
25906,15831
25831,15691
25797,15649
25831,15608
25906,15467
25952,15315
25968,15157
25952,14999
25906,14847
25831,14706
25730,14584
25608,14483
25467,14408
25315,14362
25197,14350
24802,14350
24684,14362
24606,14385
24606,12531
24609,12502
24597,12387
24579,12327
24563,12275
24509,12173
24435,12083
24412,12064
21427,9079
21408,9056
21318,8982
21216,8928
21138,8904
21104,8894
20989,8882
20960,8885
12399,8885
12370,8882
12254,8894
12143,8928
12040,8982
11973,9038
11950,9056
11932,9079
8465,12546
8442,12564
8368,12654
8313,12757
8286,12848
8280,12868
8268,12984
7992,12984
7992,8188
26850,8188
26850,28818
Z" /> 
<path style="fill:#000000; fill-opacity:1.0; 
stroke:#000000; stroke-width:236.22; stroke-opacity:1; 
stroke-linecap:round; stroke-linejoin:round;fill-rule:evenodd;"
d="M 15374,21027
15381,21027
15381,21066
15374,21066
15374,21074
15334,21074
15334,21066
15326,21066
15326,21027
15334,21027
15334,21019
15374,21019
15374,21027
Z" /> 
</g>
</g>
<g style="fill:#FFFFFF; fill-opacity:1.0; 
stroke:#FFFFFF; stroke-width:236.22; stroke-opacity:1; 
stroke-linecap:round; stroke-linejoin:round;">
</g>
<g style="fill:#FFFFFF; fill-opacity:1.0; 
stroke:#FFFFFF; stroke-width:0; stroke-opacity:1; 
stroke-linecap:round; stroke-linejoin:round;">
<circle cx="15157.5" cy="22047.2" r="68.8976" /> 
</g>
<g style="fill:#FFFFFF; fill-opacity:1.0; 
stroke:#FFFFFF; stroke-width:39.3701; stroke-opacity:1; 
stroke-linecap:round; stroke-linejoin:round;">
</g>
<g style="fill:#FFFFFF; fill-opacity:1.0; 
stroke:#FFFFFF; stroke-width:0; stroke-opacity:1; 
stroke-linecap:round; stroke-linejoin:round;">
<circle cx="14157.5" cy="22047.2" r="68.8976" /> 
</g>
<g style="fill:#FFFFFF; fill-opacity:1.0; 
stroke:#FFFFFF; stroke-width:39.3701; stroke-opacity:1; 
stroke-linecap:round; stroke-linejoin:round;">
</g>
<g style="fill:#FFFFFF; fill-opacity:1.0; 
stroke:#FFFFFF; stroke-width:0; stroke-opacity:1; 
stroke-linecap:round; stroke-linejoin:round;">
<circle cx="15157.5" cy="21047.2" r="68.8976" /> 
</g>
<g style="fill:#FFFFFF; fill-opacity:1.0; 
stroke:#FFFFFF; stroke-width:39.3701; stroke-opacity:1; 
stroke-linecap:round; stroke-linejoin:round;">
</g>
<g style="fill:#FFFFFF; fill-opacity:1.0; 
stroke:#FFFFFF; stroke-width:0; stroke-opacity:1; 
stroke-linecap:round; stroke-linejoin:round;">
<circle cx="14157.5" cy="21047.2" r="68.8976" /> 
</g>
<g style="fill:#FFFFFF; fill-opacity:1.0; 
stroke:#FFFFFF; stroke-width:39.3701; stroke-opacity:1; 
stroke-linecap:round; stroke-linejoin:round;">
</g>
<g style="fill:#FFFFFF; fill-opacity:1.0; 
stroke:#FFFFFF; stroke-width:0; stroke-opacity:1; 
stroke-linecap:round; stroke-linejoin:round;">
<circle cx="15157.5" cy="20047.2" r="68.8976" /> 
</g>
<g style="fill:#FFFFFF; fill-opacity:1.0; 
stroke:#FFFFFF; stroke-width:39.3701; stroke-opacity:1; 
stroke-linecap:round; stroke-linejoin:round;">
</g>
<g style="fill:#FFFFFF; fill-opacity:1.0; 
stroke:#FFFFFF; stroke-width:0; stroke-opacity:1; 
stroke-linecap:round; stroke-linejoin:round;">
<circle cx="14157.5" cy="20047.2" r="68.8976" /> 
</g>
<g style="fill:#FFFFFF; fill-opacity:1.0; 
stroke:#FFFFFF; stroke-width:39.3701; stroke-opacity:1; 
stroke-linecap:round; stroke-linejoin:round;">
</g>
<g style="fill:#FFFFFF; fill-opacity:1.0; 
stroke:#FFFFFF; stroke-width:0; stroke-opacity:1; 
stroke-linecap:round; stroke-linejoin:round;">
<circle cx="15157.5" cy="19047.2" r="68.8976" /> 
</g>
<g style="fill:#FFFFFF; fill-opacity:1.0; 
stroke:#FFFFFF; stroke-width:39.3701; stroke-opacity:1; 
stroke-linecap:round; stroke-linejoin:round;">
</g>
<g style="fill:#FFFFFF; fill-opacity:1.0; 
stroke:#FFFFFF; stroke-width:0; stroke-opacity:1; 
stroke-linecap:round; stroke-linejoin:round;">
<circle cx="14157.5" cy="19047.2" r="68.8976" /> 
</g>
<g style="fill:#FFFFFF; fill-opacity:1.0; 
stroke:#FFFFFF; stroke-width:39.3701; stroke-opacity:1; 
stroke-linecap:round; stroke-linejoin:round;">
</g>
<g style="fill:#FFFFFF; fill-opacity:1.0; 
stroke:#FFFFFF; stroke-width:0; stroke-opacity:1; 
stroke-linecap:round; stroke-linejoin:round;">
<circle cx="15157.5" cy="18047.2" r="68.8976" /> 
</g>
<g style="fill:#FFFFFF; fill-opacity:1.0; 
stroke:#FFFFFF; stroke-width:39.3701; stroke-opacity:1; 
stroke-linecap:round; stroke-linejoin:round;">
</g>
<g style="fill:#FFFFFF; fill-opacity:1.0; 
stroke:#FFFFFF; stroke-width:0; stroke-opacity:1; 
stroke-linecap:round; stroke-linejoin:round;">
<circle cx="14157.5" cy="18047.2" r="68.8976" /> 
</g>
<g style="fill:#FFFFFF; fill-opacity:1.0; 
stroke:#FFFFFF; stroke-width:39.3701; stroke-opacity:1; 
stroke-linecap:round; stroke-linejoin:round;">
</g>
<g style="fill:#FFFFFF; fill-opacity:1.0; 
stroke:#FFFFFF; stroke-width:0; stroke-opacity:1; 
stroke-linecap:round; stroke-linejoin:round;">
<circle cx="15157.5" cy="17047.2" r="68.8976" /> 
</g>
<g style="fill:#FFFFFF; fill-opacity:1.0; 
stroke:#FFFFFF; stroke-width:39.3701; stroke-opacity:1; 
stroke-linecap:round; stroke-linejoin:round;">
</g>
<g style="fill:#FFFFFF; fill-opacity:1.0; 
stroke:#FFFFFF; stroke-width:0; stroke-opacity:1; 
stroke-linecap:round; stroke-linejoin:round;">
<circle cx="14157.5" cy="17047.2" r="68.8976" /> 
</g>
<g style="fill:#FFFFFF; fill-opacity:1.0; 
stroke:#FFFFFF; stroke-width:39.3701; stroke-opacity:1; 
stroke-linecap:round; stroke-linejoin:round;">
</g>
<g style="fill:#FFFFFF; fill-opacity:1.0; 
stroke:#FFFFFF; stroke-width:0; stroke-opacity:1; 
stroke-linecap:round; stroke-linejoin:round;">
<circle cx="15157.5" cy="16047.2" r="68.8976" /> 
</g>
<g style="fill:#FFFFFF; fill-opacity:1.0; 
stroke:#FFFFFF; stroke-width:39.3701; stroke-opacity:1; 
stroke-linecap:round; stroke-linejoin:round;">
</g>
<g style="fill:#FFFFFF; fill-opacity:1.0; 
stroke:#FFFFFF; stroke-width:0; stroke-opacity:1; 
stroke-linecap:round; stroke-linejoin:round;">
<circle cx="14157.5" cy="16047.2" r="68.8976" /> 
</g>
<g style="fill:#FFFFFF; fill-opacity:1.0; 
stroke:#FFFFFF; stroke-width:39.3701; stroke-opacity:1; 
stroke-linecap:round; stroke-linejoin:round;">
</g>
<g style="fill:#FFFFFF; fill-opacity:1.0; 
stroke:#FFFFFF; stroke-width:0; stroke-opacity:1; 
stroke-linecap:round; stroke-linejoin:round;">
<circle cx="15157.5" cy="15047.2" r="68.8976" /> 
</g>
<g style="fill:#FFFFFF; fill-opacity:1.0; 
stroke:#FFFFFF; stroke-width:39.3701; stroke-opacity:1; 
stroke-linecap:round; stroke-linejoin:round;">
</g>
<g style="fill:#FFFFFF; fill-opacity:1.0; 
stroke:#FFFFFF; stroke-width:0; stroke-opacity:1; 
stroke-linecap:round; stroke-linejoin:round;">
<circle cx="14157.5" cy="15047.2" r="68.8976" /> 
</g>
<g style="fill:#FFFFFF; fill-opacity:1.0; 
stroke:#FFFFFF; stroke-width:39.3701; stroke-opacity:1; 
stroke-linecap:round; stroke-linejoin:round;">
</g>
<g style="fill:#FFFFFF; fill-opacity:1.0; 
stroke:#FFFFFF; stroke-width:0; stroke-opacity:1; 
stroke-linecap:round; stroke-linejoin:round;">
<circle cx="19094.5" cy="14960.6" r="68.8976" /> 
</g>
<g style="fill:#FFFFFF; fill-opacity:1.0; 
stroke:#FFFFFF; stroke-width:39.3701; stroke-opacity:1; 
stroke-linecap:round; stroke-linejoin:round;">
</g>
<g style="fill:#FFFFFF; fill-opacity:1.0; 
stroke:#FFFFFF; stroke-width:0; stroke-opacity:1; 
stroke-linecap:round; stroke-linejoin:round;">
<circle cx="25000" cy="22047.2" r="68.8976" /> 
</g>
<g style="fill:#FFFFFF; fill-opacity:1.0; 
stroke:#FFFFFF; stroke-width:39.3701; stroke-opacity:1; 
stroke-linecap:round; stroke-linejoin:round;">
</g>
<g style="fill:#FFFFFF; fill-opacity:1.0; 
stroke:#FFFFFF; stroke-width:0; stroke-opacity:1; 
stroke-linecap:round; stroke-linejoin:round;">
<circle cx="25000" cy="21063" r="68.8976" /> 
</g>
<g style="fill:#FFFFFF; fill-opacity:1.0; 
stroke:#FFFFFF; stroke-width:39.3701; stroke-opacity:1; 
stroke-linecap:round; stroke-linejoin:round;">
</g>
<g style="fill:#FFFFFF; fill-opacity:1.0; 
stroke:#FFFFFF; stroke-width:0; stroke-opacity:1; 
stroke-linecap:round; stroke-linejoin:round;">
<circle cx="25000" cy="20078.7" r="68.8976" /> 
</g>
<g style="fill:#FFFFFF; fill-opacity:1.0; 
stroke:#FFFFFF; stroke-width:39.3701; stroke-opacity:1; 
stroke-linecap:round; stroke-linejoin:round;">
</g>
<g style="fill:#FFFFFF; fill-opacity:1.0; 
stroke:#FFFFFF; stroke-width:0; stroke-opacity:1; 
stroke-linecap:round; stroke-linejoin:round;">
<circle cx="25000" cy="19094.5" r="68.8976" /> 
</g>
<g style="fill:#FFFFFF; fill-opacity:1.0; 
stroke:#FFFFFF; stroke-width:39.3701; stroke-opacity:1; 
stroke-linecap:round; stroke-linejoin:round;">
</g>
<g style="fill:#FFFFFF; fill-opacity:1.0; 
stroke:#FFFFFF; stroke-width:0; stroke-opacity:1; 
stroke-linecap:round; stroke-linejoin:round;">
<circle cx="25000" cy="18110.2" r="68.8976" /> 
</g>
<g style="fill:#FFFFFF; fill-opacity:1.0; 
stroke:#FFFFFF; stroke-width:39.3701; stroke-opacity:1; 
stroke-linecap:round; stroke-linejoin:round;">
</g>
<g style="fill:#FFFFFF; fill-opacity:1.0; 
stroke:#FFFFFF; stroke-width:0; stroke-opacity:1; 
stroke-linecap:round; stroke-linejoin:round;">
<circle cx="25000" cy="17126" r="68.8976" /> 
</g>
<g style="fill:#FFFFFF; fill-opacity:1.0; 
stroke:#FFFFFF; stroke-width:39.3701; stroke-opacity:1; 
stroke-linecap:round; stroke-linejoin:round;">
</g>
<g style="fill:#FFFFFF; fill-opacity:1.0; 
stroke:#FFFFFF; stroke-width:0; stroke-opacity:1; 
stroke-linecap:round; stroke-linejoin:round;">
<circle cx="25000" cy="16141.7" r="68.8976" /> 
</g>
<g style="fill:#FFFFFF; fill-opacity:1.0; 
stroke:#FFFFFF; stroke-width:39.3701; stroke-opacity:1; 
stroke-linecap:round; stroke-linejoin:round;">
</g>
<g style="fill:#FFFFFF; fill-opacity:1.0; 
stroke:#FFFFFF; stroke-width:0; stroke-opacity:1; 
stroke-linecap:round; stroke-linejoin:round;">
<circle cx="25000" cy="15157.5" r="68.8976" /> 
</g>
<g style="fill:#FFFFFF; fill-opacity:1.0; 
stroke:#FFFFFF; stroke-width:39.3701; stroke-opacity:1; 
stroke-linecap:round; stroke-linejoin:round;">
</g>
<g style="fill:#FFFFFF; fill-opacity:1.0; 
stroke:#FFFFFF; stroke-width:0; stroke-opacity:1; 
stroke-linecap:round; stroke-linejoin:round;">
<circle cx="17126" cy="21063" r="68.8976" /> 
</g>
<g style="fill:#FFFFFF; fill-opacity:1.0; 
stroke:#FFFFFF; stroke-width:39.3701; stroke-opacity:1; 
stroke-linecap:round; stroke-linejoin:round;">
</g>
<g style="fill:#FFFFFF; fill-opacity:1.0; 
stroke:#FFFFFF; stroke-width:0; stroke-opacity:1; 
stroke-linecap:round; stroke-linejoin:round;">
<circle cx="17126" cy="19685" r="68.8976" /> 
</g>
<g style="fill:#FFFFFF; fill-opacity:1.0; 
stroke:#FFFFFF; stroke-width:39.3701; stroke-opacity:1; 
stroke-linecap:round; stroke-linejoin:round;">
</g>
<g style="fill:#FFFFFF; fill-opacity:1.0; 
stroke:#FFFFFF; stroke-width:0; stroke-opacity:1; 
stroke-linecap:round; stroke-linejoin:round;">
<circle cx="19094.5" cy="24606.3" r="68.8976" /> 
</g>
<g style="fill:#FFFFFF; fill-opacity:1.0; 
stroke:#FFFFFF; stroke-width:39.3701; stroke-opacity:1; 
stroke-linecap:round; stroke-linejoin:round;">
</g>
<g style="fill:#000000; fill-opacity:1.0; 
stroke:#000000; stroke-width:39.3701; stroke-opacity:1; 
stroke-linecap:round; stroke-linejoin:round;">
</g> 
</svg>
