<?xml version="1.0" standalone="no"?>
 <!DOCTYPE svg PUBLIC "-//W3C//DTD SVG 1.1//EN" 
 "http://www.w3.org/Graphics/SVG/1.1/DTD/svg11.dtd"> 
<svg xmlns="http://www.w3.org/2000/svg" version="1.1" 
    width="29.7002cm" height="21.0007cm" viewBox="0 0 116930 82680 ">
<title>SVG Picture created as Alimentacao e protecao-B_Mask.svg date 2019/08/21 14:31:05 </title>
  <desc>Picture generated by PCBNEW </desc>
<g style="fill:#000000; fill-opacity:1;stroke:#000000; stroke-opacity:1;
stroke-linecap:round; stroke-linejoin:round; "
 transform="translate(0 0) scale(1 1)">
</g>
<g style="fill:#000000; fill-opacity:0.0; 
stroke:#000000; stroke-width:-0.000393701; stroke-opacity:1; 
stroke-linecap:round; stroke-linejoin:round;">
</g>
<g style="fill:#000000; fill-opacity:1.0; 
stroke:#000000; stroke-width:0; stroke-opacity:1; 
stroke-linecap:round; stroke-linejoin:round;">
<path style="fill:#000000; fill-opacity:1.0; 
stroke:#000000; stroke-width:0; stroke-opacity:1; 
stroke-linecap:round; stroke-linejoin:round;fill-rule:evenodd;"
d="M 93265,39669
93328,39688
93355,39703
93387,39720
93438,39761
93479,39812
93479,39812
93511,39871
93530,39934
93536,40000
93530,40065
93511,40128
93495,40158
93479,40187
93438,40238
93387,40279
93387,40279
93328,40311
93265,40330
93216,40335
93183,40335
93134,40330
93071,40311
93012,40279
93012,40279
92961,40238
92920,40187
92904,40158
92888,40128
92869,40065
92863,40000
92869,39934
92888,39871
92920,39812
92920,39812
92961,39761
93012,39720
93044,39703
93071,39688
93134,39669
93183,39664
93216,39664
93265,39669
Z" /> 
<path style="fill:#000000; fill-opacity:1.0; 
stroke:#000000; stroke-width:0; stroke-opacity:1; 
stroke-linecap:round; stroke-linejoin:round;fill-rule:evenodd;"
d="M 97297,39677
97358,39703
97413,39739
97460,39786
97496,39841
97522,39902
97535,39967
97535,40032
97522,40097
97496,40158
97460,40213
97413,40260
97358,40296
97297,40322
97232,40335
97167,40335
97102,40322
97041,40296
96986,40260
96939,40213
96903,40158
96877,40097
96864,40032
96864,39967
96877,39902
96903,39841
96939,39786
96986,39739
97041,39703
97102,39677
97167,39664
97232,39664
97297,39677
Z" /> 
<path style="fill:#000000; fill-opacity:1.0; 
stroke:#000000; stroke-width:0; stroke-opacity:1; 
stroke-linecap:round; stroke-linejoin:round;fill-rule:evenodd;"
d="M 87459,38662
87582,38713
87606,38723
87738,38811
87851,38924
87920,39027
87939,39056
88000,39203
88031,39359
88031,39518
88000,39674
87964,39761
87939,39821
87851,39953
87738,40066
87606,40154
87606,40154
87606,40154
87459,40215
87303,40246
87144,40246
86988,40215
86841,40154
86841,40154
86841,40154
86709,40066
86596,39953
86508,39821
86483,39761
86447,39674
86416,39518
86416,39359
86447,39203
86508,39056
86527,39027
86596,38924
86709,38811
86841,38723
86865,38713
86988,38662
87144,38631
87303,38631
87459,38662
Z" /> 
<path style="fill:#000000; fill-opacity:1.0; 
stroke:#000000; stroke-width:0; stroke-opacity:1; 
stroke-linecap:round; stroke-linejoin:round;fill-rule:evenodd;"
d="M 91855,38633
92002,38694
92002,38694
92134,38782
92247,38895
92315,38997
92335,39027
92396,39174
92427,39330
92427,39489
92396,39645
92348,39761
92335,39792
92247,39924
92134,40037
92002,40125
92002,40125
92002,40125
91855,40186
91699,40217
91540,40217
91384,40186
91237,40125
91237,40125
91237,40125
91105,40037
90992,39924
90904,39792
90891,39761
90843,39645
90812,39489
90812,39330
90843,39174
90904,39027
90924,38997
90992,38895
91105,38782
91237,38694
91237,38694
91384,38633
91540,38602
91699,38602
91855,38633
Z" /> 
<path style="fill:#000000; fill-opacity:1.0; 
stroke:#000000; stroke-width:0; stroke-opacity:1; 
stroke-linecap:round; stroke-linejoin:round;fill-rule:evenodd;"
d="M 83836,38873
83895,38884
84006,38930
84106,38997
84191,39082
84258,39182
84304,39293
84327,39411
84327,39532
84304,39650
84258,39761
84191,39861
84106,39946
84006,40013
83895,40059
83862,40065
83777,40082
83656,40082
83571,40065
83538,40059
83427,40013
83327,39946
83242,39861
83175,39761
83129,39650
83106,39532
83106,39411
83129,39293
83175,39182
83242,39082
83327,38997
83427,38930
83538,38884
83597,38873
83656,38861
83777,38861
83836,38873
Z" /> 
<path style="fill:#000000; fill-opacity:1.0; 
stroke:#000000; stroke-width:0; stroke-opacity:1; 
stroke-linecap:round; stroke-linejoin:round;fill-rule:evenodd;"
d="M 96997,38177
97058,38203
97113,38239
97160,38286
97196,38341
97222,38402
97235,38467
97235,38532
97222,38597
97196,38658
97160,38713
97113,38760
97058,38796
96997,38822
96932,38835
96867,38835
96802,38822
96741,38796
96686,38760
96639,38713
96603,38658
96577,38597
96564,38532
96564,38467
96577,38402
96603,38341
96639,38286
96686,38239
96741,38203
96802,38177
96867,38164
96932,38164
96997,38177
Z" /> 
<path style="fill:#000000; fill-opacity:1.0; 
stroke:#000000; stroke-width:0; stroke-opacity:1; 
stroke-linecap:round; stroke-linejoin:round;fill-rule:evenodd;"
d="M 95491,37696
95549,37720
95549,37720
95601,37755
95644,37798
95679,37850
95679,37850
95703,37908
95715,37968
95715,38031
95703,38091
95679,38149
95679,38149
95644,38201
95601,38244
95549,38279
95549,38279
95549,38279
95491,38303
95431,38315
95368,38315
95308,38303
95250,38279
95250,38279
95250,38279
95198,38244
95155,38201
95120,38149
95120,38149
95096,38091
95084,38031
95084,37968
95096,37908
95120,37850
95120,37850
95155,37798
95198,37755
95250,37720
95250,37720
95308,37696
95368,37684
95431,37684
95491,37696
Z" /> 
<path style="fill:#000000; fill-opacity:1.0; 
stroke:#000000; stroke-width:0; stroke-opacity:1; 
stroke-linecap:round; stroke-linejoin:round;fill-rule:evenodd;"
d="M 93715,38315
93084,38315
93084,37684
93715,37684
93715,38315
Z" /> 
<path style="fill:#000000; fill-opacity:1.0; 
stroke:#000000; stroke-width:0; stroke-opacity:1; 
stroke-linecap:round; stroke-linejoin:round;fill-rule:evenodd;"
d="M 88992,36481
89123,36535
89139,36542
89271,36630
89384,36743
89455,36850
89472,36875
89533,37022
89564,37178
89564,37337
89533,37493
89514,37538
89472,37640
89384,37772
89271,37885
89139,37973
89139,37973
89139,37973
88992,38034
88836,38065
88677,38065
88521,38034
88374,37973
88374,37973
88374,37973
88242,37885
88129,37772
88041,37640
87999,37538
87980,37493
87949,37337
87949,37178
87980,37022
88041,36875
88058,36850
88129,36743
88242,36630
88374,36542
88390,36535
88521,36481
88677,36450
88836,36450
88992,36481
Z" /> 
<path style="fill:#000000; fill-opacity:1.0; 
stroke:#000000; stroke-width:0; stroke-opacity:1; 
stroke-linecap:round; stroke-linejoin:round;fill-rule:evenodd;"
d="M 91328,36282
91445,36306
91574,36359
91691,36437
91789,36535
91867,36652
91920,36781
91944,36898
91946,36908
91948,36918
91948,37057
91920,37194
91867,37323
91789,37440
91691,37538
91574,37616
91445,37669
91328,37693
91308,37697
91169,37697
91149,37693
91032,37669
90903,37616
90786,37538
90688,37440
90610,37323
90557,37194
90529,37057
90529,36918
90531,36908
90533,36898
90557,36781
90610,36652
90688,36535
90786,36437
90903,36359
91032,36306
91149,36282
91169,36278
91308,36278
91328,36282
Z" /> 
<path style="fill:#000000; fill-opacity:1.0; 
stroke:#000000; stroke-width:0; stroke-opacity:1; 
stroke-linecap:round; stroke-linejoin:round;fill-rule:evenodd;"
d="M 94491,36696
94549,36720
94549,36720
94601,36755
94644,36798
94679,36850
94679,36850
94703,36908
94715,36968
94715,37031
94703,37091
94679,37149
94679,37149
94644,37201
94601,37244
94549,37279
94549,37279
94549,37279
94491,37303
94431,37315
94368,37315
94308,37303
94250,37279
94250,37279
94250,37279
94198,37244
94155,37201
94120,37149
94120,37149
94096,37091
94084,37031
94084,36968
94096,36908
94120,36850
94120,36850
94155,36798
94198,36755
94250,36720
94250,36720
94308,36696
94368,36684
94431,36684
94491,36696
Z" /> 
<path style="fill:#000000; fill-opacity:1.0; 
stroke:#000000; stroke-width:0; stroke-opacity:1; 
stroke-linecap:round; stroke-linejoin:round;fill-rule:evenodd;"
d="M 87319,34609
87436,34633
87565,34686
87682,34764
87780,34862
87858,34979
87911,35108
87939,35245
87939,35384
87911,35521
87858,35650
87780,35767
87682,35865
87565,35943
87436,35996
87319,36020
87299,36024
87160,36024
87140,36020
87023,35996
86894,35943
86777,35865
86679,35767
86601,35650
86548,35521
86520,35384
86520,35245
86548,35108
86601,34979
86679,34862
86777,34764
86894,34686
87023,34633
87140,34609
87160,34605
87299,34605
87319,34609
Z" /> 
<path style="fill:#000000; fill-opacity:1.0; 
stroke:#000000; stroke-width:0; stroke-opacity:1; 
stroke-linecap:round; stroke-linejoin:round;fill-rule:evenodd;"
d="M 93349,34352
93490,34411
93496,34413
93628,34501
93741,34614
93789,34687
93829,34746
93890,34893
93921,35049
93921,35208
93890,35364
93890,35364
93829,35511
93741,35643
93628,35756
93496,35844
93496,35844
93496,35844
93349,35905
93193,35936
93034,35936
92878,35905
92731,35844
92731,35844
92731,35844
92599,35756
92486,35643
92398,35511
92337,35364
92337,35364
92306,35208
92306,35049
92337,34893
92398,34746
92438,34687
92486,34614
92599,34501
92731,34413
92737,34411
92878,34352
93034,34321
93193,34321
93349,34352
Z" /> 
<path style="fill:#000000; fill-opacity:1.0; 
stroke:#000000; stroke-width:0; stroke-opacity:1; 
stroke-linecap:round; stroke-linejoin:round;fill-rule:evenodd;"
d="M 96965,34169
97028,34188
97056,34204
97087,34220
97138,34261
97179,34312
97179,34312
97211,34371
97230,34434
97236,34500
97230,34565
97211,34628
97192,34663
97179,34687
97138,34738
97087,34779
97087,34779
97028,34811
96965,34830
96916,34835
96883,34835
96834,34830
96771,34811
96712,34779
96712,34779
96661,34738
96620,34687
96607,34663
96588,34628
96569,34565
96563,34500
96569,34434
96588,34371
96620,34312
96620,34312
96661,34261
96712,34220
96743,34204
96771,34188
96834,34169
96883,34164
96916,34164
96965,34169
Z" /> 
<path style="fill:#000000; fill-opacity:1.0; 
stroke:#000000; stroke-width:0; stroke-opacity:1; 
stroke-linecap:round; stroke-linejoin:round;fill-rule:evenodd;"
d="M 80720,34002
80795,34033
80795,34033
80863,34078
80921,34136
80966,34204
80997,34279
81013,34359
81013,34440
80997,34520
80966,34595
80966,34595
80921,34663
80863,34721
80795,34766
80795,34766
80795,34766
80720,34797
80640,34813
80559,34813
80479,34797
80404,34766
80404,34766
80404,34766
80336,34721
80278,34663
80233,34595
80233,34595
80202,34520
80186,34440
80186,34359
80202,34279
80233,34204
80278,34136
80336,34078
80404,34033
80404,34033
80479,34002
80559,33986
80640,33986
80720,34002
Z" /> 
<path style="fill:#000000; fill-opacity:1.0; 
stroke:#000000; stroke-width:0; stroke-opacity:1; 
stroke-linecap:round; stroke-linejoin:round;fill-rule:evenodd;"
d="M 88965,33769
89028,33788
89081,33816
89087,33820
89138,33861
89179,33912
89179,33912
89211,33971
89230,34034
89236,34100
89230,34165
89211,34228
89193,34261
89179,34287
89138,34338
89087,34379
89087,34379
89028,34411
88965,34430
88916,34435
88883,34435
88834,34430
88771,34411
88712,34379
88712,34379
88661,34338
88620,34287
88606,34261
88588,34228
88569,34165
88563,34100
88569,34034
88588,33971
88620,33912
88620,33912
88661,33861
88712,33820
88718,33816
88771,33788
88834,33769
88883,33764
88916,33764
88965,33769
Z" /> 
<path style="fill:#000000; fill-opacity:1.0; 
stroke:#000000; stroke-width:0; stroke-opacity:1; 
stroke-linecap:round; stroke-linejoin:round;fill-rule:evenodd;"
d="M 91154,33954
90445,33954
90445,33245
91154,33245
91154,33954
Z" /> 
<path style="fill:#000000; fill-opacity:1.0; 
stroke:#000000; stroke-width:0; stroke-opacity:1; 
stroke-linecap:round; stroke-linejoin:round;fill-rule:evenodd;"
d="M 96765,32869
96828,32888
96855,32903
96887,32920
96938,32961
96979,33012
96979,33012
97011,33071
97030,33134
97036,33200
97030,33265
97011,33328
96995,33358
96979,33387
96938,33438
96887,33479
96887,33479
96828,33511
96765,33530
96716,33535
96683,33535
96634,33530
96571,33511
96512,33479
96512,33479
96461,33438
96420,33387
96404,33358
96388,33328
96369,33265
96363,33200
96369,33134
96388,33071
96420,33012
96420,33012
96461,32961
96512,32920
96544,32903
96571,32888
96634,32869
96683,32864
96716,32864
96765,32869
Z" /> 
<path style="fill:#000000; fill-opacity:1.0; 
stroke:#000000; stroke-width:0; stroke-opacity:1; 
stroke-linecap:round; stroke-linejoin:round;fill-rule:evenodd;"
d="M 92797,32877
92858,32903
92913,32939
92960,32986
92996,33041
93022,33102
93035,33167
93035,33232
93022,33297
92996,33358
92960,33413
92913,33460
92858,33496
92797,33522
92732,33535
92667,33535
92602,33522
92541,33496
92486,33460
92439,33413
92403,33358
92377,33297
92364,33232
92364,33167
92377,33102
92403,33041
92439,32986
92486,32939
92541,32903
92602,32877
92667,32864
92732,32864
92797,32877
Z" /> 
<path style="fill:#000000; fill-opacity:1.0; 
stroke:#000000; stroke-width:0; stroke-opacity:1; 
stroke-linecap:round; stroke-linejoin:round;fill-rule:evenodd;"
d="M 80720,32502
80795,32533
80795,32533
80863,32578
80921,32636
80966,32704
80997,32779
81013,32859
81013,32940
80997,33020
80976,33071
80966,33095
80921,33163
80863,33221
80795,33266
80795,33266
80795,33266
80720,33297
80640,33313
80559,33313
80479,33297
80404,33266
80404,33266
80404,33266
80336,33221
80278,33163
80233,33095
80223,33071
80202,33020
80186,32940
80186,32859
80202,32779
80233,32704
80278,32636
80336,32578
80404,32533
80404,32533
80479,32502
80559,32486
80640,32486
80720,32502
Z" /> 
<path style="fill:#000000; fill-opacity:1.0; 
stroke:#000000; stroke-width:0; stroke-opacity:1; 
stroke-linecap:round; stroke-linejoin:round;fill-rule:evenodd;"
d="M 96097,31477
96158,31503
96213,31539
96260,31586
96296,31641
96322,31702
96335,31767
96335,31832
96322,31897
96296,31958
96260,32013
96213,32060
96158,32096
96097,32122
96032,32135
95967,32135
95902,32122
95841,32096
95786,32060
95739,32013
95703,31958
95677,31897
95664,31832
95664,31767
95677,31702
95703,31641
95739,31586
95786,31539
95841,31503
95902,31477
95967,31464
96032,31464
96097,31477
Z" /> 
<path style="fill:#000000; fill-opacity:1.0; 
stroke:#000000; stroke-width:0; stroke-opacity:1; 
stroke-linecap:round; stroke-linejoin:round;fill-rule:evenodd;"
d="M 92065,31469
92128,31488
92181,31516
92187,31520
92238,31561
92279,31612
92279,31612
92311,31671
92330,31734
92336,31800
92330,31865
92311,31928
92295,31958
92279,31987
92238,32038
92187,32079
92187,32079
92128,32111
92065,32130
92016,32135
91983,32135
91934,32130
91871,32111
91812,32079
91812,32079
91761,32038
91720,31987
91704,31958
91688,31928
91669,31865
91663,31800
91669,31734
91688,31671
91720,31612
91720,31612
91761,31561
91812,31520
91818,31516
91871,31488
91934,31469
91983,31464
92016,31464
92065,31469
Z" /> 
<path style="fill:#000000; fill-opacity:1.0; 
stroke:#000000; stroke-width:0; stroke-opacity:1; 
stroke-linecap:round; stroke-linejoin:round;fill-rule:evenodd;"
d="M 97565,31369
97628,31388
97681,31416
97687,31420
97738,31461
97779,31512
97779,31512
97811,31571
97830,31634
97836,31700
97830,31765
97811,31828
97808,31832
97779,31887
97738,31938
97687,31979
97687,31979
97628,32011
97565,32030
97516,32035
97483,32035
97434,32030
97371,32011
97312,31979
97312,31979
97261,31938
97220,31887
97191,31832
97188,31828
97169,31765
97163,31700
97169,31634
97188,31571
97220,31512
97220,31512
97261,31461
97312,31420
97318,31416
97371,31388
97434,31369
97483,31364
97516,31364
97565,31369
Z" /> 
<path style="fill:#000000; fill-opacity:1.0; 
stroke:#000000; stroke-width:0; stroke-opacity:1; 
stroke-linecap:round; stroke-linejoin:round;fill-rule:evenodd;"
d="M 83836,29975
83895,29987
84006,30033
84106,30100
84191,30185
84258,30285
84304,30396
84327,30514
84327,30634
84304,30752
84258,30863
84191,30963
84106,31048
84006,31115
83895,31161
83836,31173
83777,31184
83656,31184
83597,31173
83538,31161
83427,31115
83327,31048
83242,30963
83175,30863
83129,30752
83106,30634
83106,30514
83129,30396
83175,30285
83242,30185
83327,30100
83427,30033
83538,29987
83597,29975
83656,29963
83777,29963
83836,29975
Z" /> 
<path style="fill:#000000; fill-opacity:1.0; 
stroke:#000000; stroke-width:0; stroke-opacity:1; 
stroke-linecap:round; stroke-linejoin:round;fill-rule:evenodd;"
d="M 92509,30039
92577,30068
92577,30068
92638,30109
92690,30161
92690,30161
92731,30222
92760,30290
92774,30363
92774,30436
92760,30509
92731,30577
92731,30577
92690,30638
92638,30690
92620,30703
92577,30731
92509,30760
92436,30774
92363,30774
92290,30760
92222,30731
92179,30703
92161,30690
92109,30638
92068,30577
92068,30577
92039,30509
92025,30436
92025,30363
92039,30290
92068,30222
92109,30161
92109,30161
92161,30109
92222,30068
92222,30068
92290,30039
92363,30025
92436,30025
92509,30039
Z" /> 
<path style="fill:#000000; fill-opacity:1.0; 
stroke:#000000; stroke-width:0; stroke-opacity:1; 
stroke-linecap:round; stroke-linejoin:round;fill-rule:evenodd;"
d="M 95291,30096
95321,30109
95349,30120
95401,30155
95444,30198
95460,30222
95479,30250
95503,30308
95515,30368
95515,30431
95503,30491
95496,30509
95479,30549
95444,30601
95401,30644
95349,30679
95349,30679
95349,30679
95291,30703
95231,30715
95168,30715
95108,30703
95050,30679
95050,30679
95050,30679
94998,30644
94955,30601
94920,30549
94903,30509
94896,30491
94884,30431
94884,30368
94896,30308
94920,30250
94939,30222
94955,30198
94998,30155
95050,30120
95078,30109
95108,30096
95168,30084
95231,30084
95291,30096
Z" /> 
<path style="fill:#000000; fill-opacity:1.0; 
stroke:#000000; stroke-width:0; stroke-opacity:1; 
stroke-linecap:round; stroke-linejoin:round;fill-rule:evenodd;"
d="M 88997,29777
89058,29803
89113,29839
89160,29886
89196,29941
89222,30002
89235,30067
89235,30132
89222,30197
89196,30258
89160,30313
89113,30360
89058,30396
88997,30422
88932,30435
88867,30435
88802,30422
88741,30396
88686,30360
88639,30313
88603,30258
88577,30197
88564,30132
88564,30067
88577,30002
88603,29941
88639,29886
88686,29839
88741,29803
88802,29777
88867,29764
88932,29764
88997,29777
Z" /> 
<path style="fill:#000000; fill-opacity:1.0; 
stroke:#000000; stroke-width:0; stroke-opacity:1; 
stroke-linecap:round; stroke-linejoin:round;fill-rule:evenodd;"
d="M 92774,29774
92025,29774
92025,29025
92774,29025
92774,29774
Z" /> 
<path style="fill:#000000; fill-opacity:1.0; 
stroke:#000000; stroke-width:0; stroke-opacity:1; 
stroke-linecap:round; stroke-linejoin:round;fill-rule:evenodd;"
d="M 96515,29715
95884,29715
95884,29084
96515,29084
96515,29715
Z" /> 
<path style="fill:#000000; fill-opacity:1.0; 
stroke:#000000; stroke-width:0; stroke-opacity:1; 
stroke-linecap:round; stroke-linejoin:round;fill-rule:evenodd;"
d="M 94291,29096
94349,29120
94349,29120
94401,29155
94444,29198
94479,29250
94479,29250
94503,29308
94515,29368
94515,29431
94503,29491
94479,29549
94479,29549
94444,29601
94401,29644
94349,29679
94349,29679
94349,29679
94291,29703
94231,29715
94168,29715
94108,29703
94050,29679
94050,29679
94050,29679
93998,29644
93955,29601
93920,29549
93920,29549
93896,29491
93884,29431
93884,29368
93896,29308
93920,29250
93920,29250
93955,29198
93998,29155
94050,29120
94050,29120
94108,29096
94168,29084
94231,29084
94291,29096
Z" /> 
<path style="fill:#000000; fill-opacity:1.0; 
stroke:#000000; stroke-width:0; stroke-opacity:1; 
stroke-linecap:round; stroke-linejoin:round;fill-rule:evenodd;"
d="M 81264,28716
80279,28716
80279,27731
81264,27731
81264,28716
Z" /> 
<path style="fill:#000000; fill-opacity:1.0; 
stroke:#000000; stroke-width:0; stroke-opacity:1; 
stroke-linecap:round; stroke-linejoin:round;fill-rule:evenodd;"
d="M 86868,27738
86961,27766
87046,27812
87121,27874
87183,27949
87229,28034
87257,28127
87266,28224
87257,28320
87229,28413
87183,28498
87121,28573
87046,28635
86961,28681
86868,28709
86796,28716
86747,28716
86675,28709
86582,28681
86497,28635
86422,28573
86360,28498
86314,28413
86286,28320
86277,28224
86286,28127
86314,28034
86360,27949
86422,27874
86497,27812
86582,27766
86675,27738
86747,27731
86796,27731
86868,27738
Z" /> 
<path style="fill:#000000; fill-opacity:1.0; 
stroke:#000000; stroke-width:0; stroke-opacity:1; 
stroke-linecap:round; stroke-linejoin:round;fill-rule:evenodd;"
d="M 88853,27079
89000,27140
89000,27140
89132,27228
89245,27341
89333,27473
89394,27620
89425,27776
89425,27935
89394,28091
89339,28224
89333,28238
89245,28370
89132,28483
89000,28571
89000,28571
89000,28571
88853,28632
88697,28663
88538,28663
88382,28632
88235,28571
88235,28571
88235,28571
88103,28483
87990,28370
87902,28238
87896,28224
87841,28091
87810,27935
87810,27776
87841,27620
87902,27473
87990,27341
88103,27228
88235,27140
88235,27140
88382,27079
88538,27048
88697,27048
88853,27079
Z" /> 
<path style="fill:#000000; fill-opacity:1.0; 
stroke:#000000; stroke-width:0; stroke-opacity:1; 
stroke-linecap:round; stroke-linejoin:round;fill-rule:evenodd;"
d="M 97835,28035
97164,28035
97164,27364
97835,27364
97835,28035
Z" /> 
</g> 
</svg>
